<svg width="30" height="30" viewBox="0 0 30 30" fill="none" xmlns="http://www.w3.org/2000/svg">
<circle cx="15" cy="15" r="14.5" stroke="white"/>
<path d="M15.1181 21C15.0784 21 15.0387 21 14.9986 20.9998C14.058 21.0021 13.1889 20.9782 12.3437 20.9268C11.5688 20.8796 10.8615 20.6118 10.298 20.1524C9.7544 19.7091 9.38315 19.1097 9.19464 18.3711C9.03058 17.728 9.02188 17.0967 9.01355 16.4862C9.00751 16.0481 9.00128 15.529 9 15.0011C9.00128 14.471 9.00751 13.9519 9.01355 13.5138C9.02188 12.9033 9.03058 12.2721 9.19464 11.6289C9.38315 10.8903 9.7544 10.2909 10.298 9.84756C10.8615 9.38815 11.5688 9.12036 12.3438 9.07321C13.189 9.02185 14.0583 8.99786 15.0009 9.00015C15.9418 8.99814 16.8107 9.02185 17.6559 9.07321C18.4308 9.12036 19.1381 9.38815 19.7015 9.84756C20.2453 10.2909 20.6164 10.8903 20.8049 11.6289C20.969 12.272 20.9777 12.9033 20.986 13.5138C20.9921 13.9519 20.9984 14.471 20.9996 14.9989V15.0011C20.9984 15.529 20.9921 16.0481 20.986 16.4862C20.9777 17.0966 20.9691 17.7279 20.8049 18.3711C20.6164 19.1097 20.2453 19.7091 19.7015 20.1524C19.1381 20.6118 18.4308 20.8796 17.6559 20.9268C16.8465 20.976 16.015 21 15.1181 21ZM14.9986 20.0623C15.924 20.0645 16.7736 20.0412 17.5989 19.991C18.1849 19.9554 18.6929 19.7652 19.1091 19.4258C19.4938 19.1121 19.7588 18.6792 19.8965 18.1392C20.0331 17.6039 20.041 17.0292 20.0486 16.4733C20.0546 16.0382 20.0608 15.5228 20.0621 15C20.0608 14.4771 20.0546 13.9618 20.0486 13.5266C20.041 12.9708 20.0331 12.396 19.8965 11.8606C19.7588 11.3207 19.4938 10.8878 19.1091 10.574C18.6929 10.2347 18.1849 10.0446 17.5989 10.009C16.7736 9.95871 15.924 9.93555 15.0008 9.93756C14.0757 9.93536 13.226 9.95871 12.4006 10.009C11.8147 10.0446 11.3067 10.2347 10.8905 10.574C10.5058 10.8878 10.2408 11.3207 10.103 11.8606C9.96643 12.396 9.95856 12.9707 9.95096 13.5266C9.94501 13.9621 9.93878 14.4779 9.9375 15.0011C9.93878 15.522 9.94501 16.0378 9.95096 16.4733C9.95856 17.0292 9.96643 17.6039 10.103 18.1392C10.2408 18.6792 10.5058 19.1121 10.8905 19.4258C11.3067 19.7651 11.8147 19.9553 12.4006 19.9909C13.226 20.0412 14.0759 20.0646 14.9986 20.0623ZM14.9763 17.9297C13.3609 17.9297 12.0466 16.6154 12.0466 15C12.0466 13.3845 13.3609 12.0703 14.9763 12.0703C16.5918 12.0703 17.906 13.3845 17.906 15C17.906 16.6154 16.5918 17.9297 14.9763 17.9297ZM14.9763 13.0078C13.8779 13.0078 12.9841 13.9015 12.9841 15C12.9841 16.0984 13.8779 16.9922 14.9763 16.9922C16.0748 16.9922 16.9685 16.0984 16.9685 15C16.9685 13.9015 16.0748 13.0078 14.9763 13.0078ZM18.2341 11.1328C17.8458 11.1328 17.531 11.4475 17.531 11.8359C17.531 12.2243 17.8458 12.539 18.2341 12.539C18.6225 12.539 18.9373 12.2243 18.9373 11.8359C18.9373 11.4475 18.6225 11.1328 18.2341 11.1328Z" fill="white"/>
</svg>
