<svg width="30" height="30" viewBox="0 0 30 30" fill="none" xmlns="http://www.w3.org/2000/svg">
<circle cx="15" cy="15" r="14.5" stroke="white"/>
<path fill-rule="evenodd" clip-rule="evenodd" d="M10.4552 9C9.57532 9 9 9.57781 9 10.3373C9 11.0799 9.55818 11.6742 10.4215 11.6742H10.4382C11.3353 11.6742 11.8936 11.0799 11.8936 10.3373C11.8769 9.57781 11.3353 9 10.4552 9ZM9.15194 12.7306H11.7244V20.4698H9.15194V12.7306ZM15.7203 13.8533C15.7203 13.8533 16.6509 12.5493 18.0386 12.5493C19.7309 12.5493 21 13.6555 21 16.0326V20.4702H18.4279V16.3299C18.4279 15.2895 18.0556 14.5798 17.1247 14.5798C16.4141 14.5798 15.9909 15.0584 15.8049 15.5205C15.7369 15.6859 15.7202 15.9169 15.7202 16.1483V20.4702H13.1478V12.731H15.7203V13.8533Z" fill="white"/>
<path fill-rule="evenodd" clip-rule="evenodd" d="M10.4552 9C9.57532 9 9 9.57781 9 10.3373C9 11.0799 9.55818 11.6742 10.4215 11.6742H10.4382C11.3353 11.6742 11.8936 11.0799 11.8936 10.3373C11.8769 9.57781 11.3353 9 10.4552 9ZM9.15194 12.7306H11.7244V20.4698H9.15194V12.7306ZM15.7203 13.8533C15.7203 13.8533 16.6509 12.5493 18.0386 12.5493C19.7309 12.5493 21 13.6555 21 16.0326V20.4702H18.4279V16.3299C18.4279 15.2895 18.0556 14.5798 17.1247 14.5798C16.4141 14.5798 15.9909 15.0584 15.8049 15.5205C15.7369 15.6859 15.7202 15.9169 15.7202 16.1483V20.4702H13.1478V12.731H15.7203V13.8533Z" fill="white"/>
<path fill-rule="evenodd" clip-rule="evenodd" d="M10.4552 9C9.57532 9 9 9.57781 9 10.3373C9 11.0799 9.55818 11.6742 10.4215 11.6742H10.4382C11.3353 11.6742 11.8936 11.0799 11.8936 10.3373C11.8769 9.57781 11.3353 9 10.4552 9ZM9.15194 12.7306H11.7244V20.4698H9.15194V12.7306ZM15.7203 13.8533C15.7203 13.8533 16.6509 12.5493 18.0386 12.5493C19.7309 12.5493 21 13.6555 21 16.0326V20.4702H18.4279V16.3299C18.4279 15.2895 18.0556 14.5798 17.1247 14.5798C16.4141 14.5798 15.9909 15.0584 15.8049 15.5205C15.7369 15.6859 15.7202 15.9169 15.7202 16.1483V20.4702H13.1478V12.731H15.7203V13.8533Z" fill="white"/>
<path fill-rule="evenodd" clip-rule="evenodd" d="M10.4552 9C9.57532 9 9 9.57781 9 10.3373C9 11.0799 9.55818 11.6742 10.4215 11.6742H10.4382C11.3353 11.6742 11.8936 11.0799 11.8936 10.3373C11.8769 9.57781 11.3353 9 10.4552 9ZM9.15194 12.7306H11.7244V20.4698H9.15194V12.7306ZM15.7203 13.8533C15.7203 13.8533 16.6509 12.5493 18.0386 12.5493C19.7309 12.5493 21 13.6555 21 16.0326V20.4702H18.4279V16.3299C18.4279 15.2895 18.0556 14.5798 17.1247 14.5798C16.4141 14.5798 15.9909 15.0584 15.8049 15.5205C15.7369 15.6859 15.7202 15.9169 15.7202 16.1483V20.4702H13.1478V12.731H15.7203V13.8533Z" fill="white"/>
</svg>
