<svg width="30" height="30" viewBox="0 0 30 30" fill="none" xmlns="http://www.w3.org/2000/svg">
<circle cx="15" cy="15" r="14.5" stroke="white"/>
<path d="M20.7528 12.3147C20.6145 11.8006 20.2092 11.3954 19.6951 11.2569C18.7561 11 14.9999 11 14.9999 11C14.9999 11 11.2438 11 10.3047 11.2472C9.80061 11.3855 9.3854 11.8007 9.24712 12.3147C9 13.2537 9 15.201 9 15.201C9 15.201 9 17.1581 9.24712 18.0872C9.38555 18.6012 9.79072 19.0065 10.3048 19.1449C11.2537 19.4019 15 19.4019 15 19.4019C15 19.4019 18.7561 19.4019 19.6951 19.1547C20.2092 19.0164 20.6145 18.6111 20.7529 18.0971C20.9999 17.1581 20.9999 15.2108 20.9999 15.2108C20.9999 15.2108 21.0098 13.2537 20.7528 12.3147ZM13.804 16.9999V13.402L16.9275 15.201L13.804 16.9999Z" fill="white"/>
</svg>
