<svg width="80" height="80" viewBox="0 0 80 80" fill="none" xmlns="http://www.w3.org/2000/svg">
<g clip-path="url(#clip0_409_1496)">
<path d="M65.6086 10.5211C63.8622 10.0509 62.0363 10.292 60.4677 11.1999C57.2345 13.0713 56.1142 17.2295 57.9702 20.4697C58.8702 22.0409 60.327 23.165 62.0727 23.635C62.6563 23.7922 63.2484 23.8699 63.8372 23.8699C65.0105 23.8699 66.1694 23.5609 67.2139 22.9564C70.447 21.085 71.5673 16.9267 69.7114 13.6866C68.8113 12.1152 67.3541 10.9911 65.6086 10.5211ZM66.0397 20.9278C65.0144 21.5209 63.822 21.6786 62.6819 21.3719C61.5427 21.0652 60.5916 20.3311 60.0036 19.3049C58.7872 17.1809 59.5219 14.4552 61.6414 13.2283C62.3244 12.8331 63.0816 12.6313 63.8481 12.6313C64.2322 12.6313 64.6188 12.6819 64.9991 12.7842C66.1383 13.0909 67.0895 13.825 67.6775 14.8513C68.8941 16.9753 68.1594 19.7011 66.0397 20.9278Z" fill="white"/>
<path d="M79.0847 20.6523L76.9055 18.7747C77.0772 17.4825 77.0578 16.1867 76.848 14.907L78.9013 13.1452C79.8097 12.3656 80.0377 11.0463 79.4431 10.008L77.558 6.71719C76.9606 5.67469 75.7052 5.20859 74.573 5.60906L71.8638 6.56672C70.84 5.78062 69.7141 5.15547 68.5025 4.70047L68.0136 2.03953C67.7967 0.8575 66.7684 0 65.5691 0C65.5689 0 65.5686 0 65.5684 0L61.7822 0.00046875C60.5855 0.00078125 59.5553 0.856406 59.333 2.03469L58.7969 4.87469C57.6172 5.36937 56.4825 6.05328 55.4928 6.86672L52.9549 5.96859C51.8255 5.56922 50.5694 6.03328 49.9685 7.07328L48.0672 10.3644C47.4674 11.4027 47.69 12.723 48.5966 13.5039L50.7758 15.3816C50.6042 16.6736 50.6235 17.9694 50.8335 19.2492L48.7802 21.0111C47.8717 21.7906 47.6438 23.11 48.2383 24.1483L50.1231 27.4389C50.7203 28.4814 51.9753 28.9478 53.1083 28.5472L55.8175 27.5895C56.8414 28.3756 57.9674 29.0008 59.1788 29.4558L59.6677 32.117C59.8849 33.2987 60.9133 34.1562 62.1128 34.1562L65.8991 34.1558C67.0958 34.1555 68.1258 33.2998 68.3483 32.1214L68.8842 29.2814C70.0635 28.7866 71.1989 28.1028 72.1883 27.2894L74.7267 28.1875C75.8561 28.5872 77.1122 28.1223 77.7127 27.0828L79.6141 23.7916C80.2138 22.7534 79.9909 21.4333 79.0847 20.6523ZM77.5847 22.6192L75.6833 25.9105C75.6474 25.9728 75.5738 26.0009 75.5084 25.9781L72.327 24.8523C71.9185 24.7077 71.4634 24.8005 71.1442 25.0933C70.078 26.0708 68.8172 26.8333 67.4566 27.3231C67.0658 27.4636 66.7788 27.8005 66.7017 28.2084L66.0453 31.6869C66.0316 31.7594 65.97 31.812 65.8988 31.812L62.1128 31.8125C62.0444 31.8125 61.9856 31.7623 61.9728 31.6933L61.3605 28.36C61.282 27.9334 60.9742 27.5848 60.5606 27.4542C59.172 27.0159 57.9088 26.3162 56.8061 25.3747C56.4413 25.0962 56.0575 25.025 55.6545 25.1611L52.327 26.3372C52.2619 26.3605 52.1917 26.3344 52.157 26.2739L50.2722 22.9833C50.2356 22.9195 50.2499 22.838 50.3064 22.7895L52.8749 20.5855C53.2024 20.3045 53.3488 19.8664 53.2564 19.445C52.9447 18.0244 52.9216 16.5734 53.1875 15.1323C53.2631 14.7227 53.1156 14.3036 52.8002 14.0319L50.1264 11.7283C50.072 11.6814 50.0595 11.6009 50.0967 11.5367L51.998 8.24562C52.0339 8.18344 52.1075 8.15516 52.173 8.17781L55.3544 9.30359C55.7627 9.44797 56.2178 9.35531 56.5374 9.0625C57.6031 8.08516 58.8641 7.32203 60.2245 6.83281C60.6153 6.69234 60.9025 6.35547 60.9795 5.9475L61.6361 2.46891C61.6497 2.39641 61.7114 2.34375 61.7827 2.34375H65.5689C65.6372 2.34375 65.6958 2.39375 65.7084 2.46297L66.321 5.79625C66.3994 6.22281 66.7072 6.57141 67.1208 6.70203C68.5097 7.14047 69.773 7.84 70.8753 8.78156C71.1934 9.05297 71.6322 9.13453 72.0269 8.99516L75.3544 7.81891C75.4203 7.79578 75.4897 7.82203 75.5244 7.88234L77.4092 11.173C77.4458 11.2367 77.4316 11.3183 77.375 11.3667L74.8066 13.5708C74.4791 13.8517 74.3327 14.2898 74.425 14.7113C74.7366 16.1316 74.7599 17.5825 74.4938 19.0239C74.4181 19.4336 74.5656 19.8527 74.8811 20.1244L77.5549 22.428C77.6091 22.4747 77.6216 22.5553 77.5847 22.6192Z" fill="white"/>
<path d="M17.0039 42.207C17.0033 40.1256 15.276 38.2858 13.163 38.2953L12.5033 38.2936L12.4985 32.4325C12.4967 30.6527 9.72079 31.0723 10.155 32.7319L10.1595 38.2875C9.03751 38.2845 7.91533 38.2816 6.7933 38.2786L6.77658 18.1936C6.77642 17.9859 6.72111 17.782 6.61642 17.603L3.8258 12.8309L3.82423 6.53641L13.0892 6.57953L13.0908 12.7986L10.3019 17.5927C10.1975 17.7719 10.1427 17.9755 10.1428 18.1828L10.1492 25.9091C9.75705 27.5398 12.4947 27.8281 12.4931 26.1848L12.4869 18.4977L15.2756 13.7039C15.3799 13.5248 15.4347 13.3214 15.4347 13.1144L15.4316 1.17156C15.4316 0.567188 14.8735 0 14.2563 0L2.64751 0.0339063C2.01205 0.035625 1.48017 0.567344 1.47908 1.20313L1.4822 13.1489C1.4822 13.3567 1.53751 13.5608 1.64236 13.7402L4.43314 18.5125L4.44955 38.2723L3.78892 38.2706C-0.773735 38.2838 -1.35514 45.3225 3.13173 46.105L3.09361 69.4667C3.08345 76.6227 13.832 76.5681 13.8417 69.4944L13.88 46.0639C15.6567 45.7159 17.0045 44.1177 17.0039 42.207ZM3.82361 4.19266L3.82314 2.37422L13.088 2.34703L13.0885 4.23578L3.82361 4.19266ZM8.48189 72.6314C6.81205 72.6314 5.43501 71.1066 5.43736 69.4706L5.47548 46.1578L11.5361 46.1402L11.498 69.4911C11.4956 71.2177 10.1425 72.6266 8.48189 72.6314ZM13.158 43.7916L3.79017 43.8189C1.89501 43.8189 1.91142 40.6199 3.78923 40.6145L13.1633 40.6391C15.0438 40.6391 15.0572 43.7859 13.158 43.7916Z" fill="white"/>
<path d="M75.0266 66.4234L75.0243 61.242C75.0208 52.7351 71.1793 44.798 64.4849 39.4656C63.8164 38.933 62.6883 38.8789 61.9644 39.3453C59.4071 37.6091 56.605 36.3494 53.6097 35.5917C53.7278 34.963 53.6005 34.0978 52.9778 33.7742C49.2497 31.8373 44.7989 31.8389 41.0727 33.7792C40.4502 34.1033 40.3236 34.9695 40.4424 35.5983C39.068 35.947 37.7342 36.4012 36.4461 36.9591L36.561 23.1612C41.3357 21.977 43.8574 18.892 43.871 14.1903C43.8861 8.98249 40.7947 2.98577 36.6802 0.241705C35.6855 -0.160951 35.0782 0.162799 34.8582 1.21327L34.8297 10.9533C34.7869 11.4772 34.5085 11.7656 33.9944 11.8187L29.0521 11.7941C28.5902 11.7917 28.2157 11.3976 28.2171 10.9153L28.2453 1.17514C28.0324 0.125299 27.428 -0.20267 26.4319 0.191237C22.2999 2.8953 19.1724 8.86264 19.1572 14.0717C19.1436 18.7692 21.6446 21.8773 26.4064 23.1095L26.2769 42.5681C21.6391 47.6645 19.0466 54.273 19.0496 61.2655L19.0517 66.4337C14.4308 67.8445 15.3244 74.9186 20.2646 74.9186C23.7211 74.9186 26.9535 75.9462 29.9708 77.5666C33.0007 79.1586 36.4122 80 39.8371 80H39.846L54.2438 79.9939C57.6719 79.9923 61.086 79.1481 64.1169 77.5523C67.1314 75.9134 70.3619 74.8975 73.8191 74.8961C78.6921 74.8942 79.7244 67.7956 75.0266 66.4234ZM60.9796 41.5123L60.9853 55.2556C60.9857 55.9028 61.5102 56.427 62.1572 56.427H62.1577C62.805 56.4267 63.3294 55.9019 63.3291 55.2547L63.3233 41.5403C69.2719 46.4222 72.6774 53.5811 72.6807 61.2431L72.683 66.2402H63.3339L63.3317 61.4837C63.3314 60.8366 62.8069 60.3123 62.1599 60.3123C62.1597 60.3123 62.1596 60.3123 62.1594 60.3123C61.5121 60.3126 60.9877 60.8375 60.988 61.4847L60.99 66.2403H53.6228L53.611 38.0169C56.2525 38.7541 58.7233 39.9262 60.9796 41.5123ZM51.2661 35.5522L51.2791 66.24H42.7992L42.7863 35.5556C45.4853 34.3709 48.566 34.3697 51.2661 35.5522ZM40.4553 66.2402H33.0883L33.0778 41.5241C35.3085 39.9531 37.8167 38.7589 40.4435 38.0233L40.4553 66.2402ZM21.5011 14.0786C21.5116 10.4719 23.3347 6.31592 25.8944 3.67624L25.8735 10.9086C25.8683 12.6806 27.2891 14.1292 29.0407 14.138L33.983 14.1626C35.6914 14.1626 37.1688 12.6645 37.1736 10.9601L37.1947 3.73639C39.7392 6.40249 41.538 10.5767 41.5274 14.1837C41.5163 18.0231 39.4411 20.2731 35.1835 21.062C34.6316 21.1642 34.2297 21.6433 34.225 22.2045L34.0925 38.1198C33.4097 38.5006 32.7428 38.9145 32.091 39.358C31.3671 38.8922 30.2386 38.9469 29.5708 39.4803C29.2521 39.7347 28.9419 39.9967 28.6361 40.2628L28.7564 22.1831C28.76 21.6198 28.3625 21.1333 27.8094 21.0253C23.5533 20.1928 21.4899 17.9206 21.5011 14.0786ZM30.7339 41.5539L30.7444 66.24H21.3953L21.3932 61.2645C21.3902 53.6026 24.7894 46.4408 30.7339 41.5539ZM75.2652 71.9389C74.8833 72.3342 74.3693 72.552 73.818 72.5523C69.986 72.5539 66.3752 73.6792 63.0249 75.4784C60.3291 76.898 57.2924 77.6491 54.2428 77.6502L39.845 77.6562C39.8421 77.6562 39.8399 77.6562 39.8371 77.6562C36.7907 77.6561 33.7558 76.9078 31.061 75.4917C27.8149 73.7558 24.0125 72.3666 20.2646 72.5748C17.6388 72.5748 17.6899 68.5848 20.3464 68.5837H31.9167H41.6275H52.4511H62.1621H73.7327C75.3849 68.6823 76.5553 70.6036 75.2652 71.9389Z" fill="white"/>
</g>
<defs>
<clipPath id="clip0_409_1496">
<rect width="80" height="80" fill="white"/>
</clipPath>
</defs>
</svg>
