<svg width="40" height="40" viewBox="0 0 40 40" fill="none" xmlns="http://www.w3.org/2000/svg">
<circle cx="20" cy="19.9995" r="19.5" stroke="white"/>
<path fill-rule="evenodd" clip-rule="evenodd" d="M12.8536 12.1459C12.6583 11.9506 12.3417 11.9506 12.1464 12.1459C11.9512 12.3412 11.9512 12.6577 12.1464 12.853L19.2947 20.0013L12.1464 27.1496C11.9512 27.3448 11.9512 27.6614 12.1464 27.8567C12.3417 28.0519 12.6583 28.0519 12.8536 27.8567L20.0018 20.7084L27.1501 27.8567C27.3454 28.0519 27.662 28.0519 27.8572 27.8567C28.0525 27.6614 28.0525 27.3448 27.8572 27.1496L20.7089 20.0013L27.8572 12.853C28.0525 12.6577 28.0525 12.3412 27.8572 12.1459C27.662 11.9506 27.3454 11.9506 27.1501 12.1459L20.0018 19.2942L12.8536 12.1459Z" fill="white"/>
</svg>
