<svg width="80" height="80" viewBox="0 0 80 80" fill="none" xmlns="http://www.w3.org/2000/svg">
<path d="M1.45 73.0875C1.175 73.5126 1.1875 74.0625 1.4875 74.4751C1.725 74.8125 2.1125 75.0125 2.5125 75.0125C2.6 75.0125 2.6875 75.0126 2.7875 74.9875L14.275 72.4375C17.5875 74.125 21.3 75.0125 25.025 75.0125C37.9875 75.0125 48.55 64.5625 48.75 51.6376C54.375 53.1625 60.5375 52.5875 65.7625 49.9375L77.25 52.475C77.3375 52.5 77.425 52.5 77.525 52.5C77.925 52.5 78.3125 52.3 78.55 51.9625C78.8375 51.55 78.85 51 78.5875 50.575L73.9 43.1625C77.05 39.05 78.775 33.9625 78.775 28.7375C78.775 15.6375 68.125 4.98755 55.025 4.98755C41.925 4.98755 31.5 15.4375 31.3 28.35C29.3 27.8 27.2 27.4875 25.025 27.4875C11.9 27.5 1.25 38.15 1.25 51.25C1.25 56.4625 2.975 61.55 6.1375 65.675L1.45 73.0875ZM55 7.50005C66.7125 7.50005 76.25 17.0375 76.25 28.75C76.25 33.6875 74.525 38.5 71.375 42.2876C71.025 42.7001 70.9875 43.3 71.275 43.75L74.8375 49.375L65.8375 47.3875C65.55 47.325 65.2375 47.3625 64.975 47.5C59.9875 50.15 53.975 50.6625 48.625 48.9875C47.775 39.975 41.85 32.4125 33.75 29.1875C33.75 29.0375 33.7375 28.8875 33.7375 28.7375C33.7375 17.025 43.275 7.48755 54.9875 7.48755L55 7.50005ZM3.75 51.25C3.75 39.5375 13.2875 30 25 30C36.7125 30 46.25 39.5375 46.25 51.25C46.25 62.9625 36.7125 72.5 25 72.5C21.525 72.5 18.075 71.6376 15.0125 70C14.825 69.9 14.625 69.8501 14.425 69.8501C14.3375 69.8501 14.2375 69.8501 14.15 69.875L5.1625 71.8625L8.725 66.2375C9.0125 65.775 8.975 65.1875 8.6375 64.775C5.4875 60.975 3.7625 56.1625 3.7625 51.225L3.75 51.25Z" fill="white"/>
<path d="M25 62.5C26.0355 62.5 26.875 61.6605 26.875 60.625C26.875 59.5895 26.0355 58.75 25 58.75C23.9645 58.75 23.125 59.5895 23.125 60.625C23.125 61.6605 23.9645 62.5 25 62.5Z" fill="white"/>
<path d="M25 41.25C27.0625 41.25 28.75 42.9375 28.75 45C28.75 47.0625 27.0625 48.75 25 48.75C24.3125 48.75 23.75 49.3125 23.75 50V56.25H26.25V51.125C29.1 50.55 31.25 48.025 31.25 45C31.25 41.55 28.45 38.75 25 38.75C21.55 38.75 18.75 41.55 18.75 45H21.25C21.25 42.9375 22.9375 41.25 25 41.25Z" fill="white"/>
<path d="M45 20H65V22.5H45V20Z" fill="white"/>
<path d="M45 27.5H65V30H45V27.5Z" fill="white"/>
<path d="M50 35H65V37.5H50V35Z" fill="white"/>
</svg>
