<svg width="80" height="80" viewBox="0 0 80 80" fill="none" xmlns="http://www.w3.org/2000/svg">
<g clip-path="url(#clip0_409_1536)">
<path d="M15.1667 73.5833C15.1667 74.3197 14.5697 74.9167 13.8333 74.9167H1.33333C0.596992 74.9167 -7.62939e-06 74.3197 -7.62939e-06 73.5833C-7.62939e-06 72.847 0.596992 72.25 1.33333 72.25H13.8333C14.5697 72.25 15.1667 72.847 15.1667 73.5833ZM31 14.75C36.1463 14.75 40.3333 18.937 40.3333 24.0833V26.4167C40.3333 27.153 39.7363 27.75 39 27.75H23C22.2637 27.75 21.6667 27.153 21.6667 26.4167V24.0833C21.6667 18.937 25.8537 14.75 31 14.75ZM24.3333 24.0833V25.0833H37.6667V24.0833C37.6667 20.4073 34.676 17.4167 31 17.4167C27.324 17.4167 24.3333 20.4073 24.3333 24.0833ZM11.0833 69.5833C11.8197 69.5833 12.4177 68.9862 12.4167 68.2482L12.3467 16.1357C12.3405 11.5027 16.0878 7.75 20.7212 7.75H21.2923C23.9657 7.75 26.4158 8.98166 28.0145 11.1292C28.4542 11.7197 29.2895 11.8422 29.8802 11.4025C30.4708 10.9628 30.5932 10.1275 30.1535 9.53683C28.0775 6.74833 24.7648 5.0835 21.2923 5.0835H20.7212C14.613 5.0835 9.67183 10.0307 9.67999 16.1393L9.74999 68.2518C9.75099 68.9875 10.3477 69.5833 11.0833 69.5833ZM74 51.4167V42.7228C74 38.7862 70.7972 35.5833 66.8605 35.5833H30.4728C26.5362 35.5833 23.3333 38.7862 23.3333 42.7228V45.9167C23.3333 46.653 23.9303 47.25 24.6667 47.25C25.403 47.25 26 46.653 26 45.9167V42.7228C26 40.2565 28.0065 38.25 30.4728 38.25H47.5V53.25C47.5 53.9863 48.097 54.5833 48.8333 54.5833C49.5697 54.5833 50.1667 53.9863 50.1667 53.25V38.25H66.8605C69.3268 38.25 71.3333 40.2565 71.3333 42.7228V51.452C68.3392 51.7747 66 54.3163 66 57.395V58.5833C66 59.3197 66.597 59.9167 67.3333 59.9167C68.0697 59.9167 68.6667 59.3197 68.6667 58.5833V57.395C68.6667 55.569 70.1522 54.0833 71.9782 54.0833H74.0218C75.8478 54.0833 77.3333 55.569 77.3333 57.395V68.9385C77.3333 70.7645 75.8478 72.2502 74.0218 72.2502H68.6667C68.6667 63.5235 68.6732 64.0605 68.6552 63.9168C68.7568 63.1027 68.1202 62.4168 67.3333 62.4168H37.5C36.7637 62.4168 36.1667 63.0138 36.1667 63.7502C36.1667 64.4865 36.7637 65.0835 37.5 65.0835H66V73.5835C66 74.3198 66.597 74.9168 67.3333 74.9168H74.0218C77.3182 74.9168 80 72.235 80 68.9385V57.395C80 54.1417 77.3702 51.4167 74 51.4167ZM60.5 72.25C59.2943 72.25 25.5387 72.25 23.645 72.25C21.819 72.25 20.3333 70.7643 20.3333 68.9383V57.395C20.3333 55.569 21.819 54.0833 23.645 54.0833H25.6885C27.5145 54.0833 29.0002 55.569 29.0002 57.395V64.9167C29.0002 65.653 29.5972 66.25 30.3335 66.25C31.0698 66.25 31.6668 65.653 31.6668 64.9167V57.395C31.6668 54.0985 28.985 51.4167 25.6885 51.4167H23.645C20.3485 51.4167 17.6667 54.0985 17.6667 57.395V68.9385C17.6667 72.235 20.3485 74.9168 23.645 74.9168H60.5C61.2363 74.9168 61.8333 74.3198 61.8333 73.5835C61.8333 72.8472 61.2363 72.25 60.5 72.25Z" fill="white"/>
</g>
<defs>
<clipPath id="clip0_409_1536">
<rect width="80" height="80" fill="white"/>
</clipPath>
</defs>
</svg>
