<svg width="80" height="80" viewBox="0 0 80 80" fill="none" xmlns="http://www.w3.org/2000/svg">
<g clip-path="url(#clip0_409_1513)">
<path d="M11.8377 23.0319H29.8211C30.4683 23.0319 30.993 22.5072 30.993 21.86C30.993 21.2129 30.4683 20.6882 29.8211 20.6882H11.8377C11.1905 20.6882 10.6658 21.2129 10.6658 21.86C10.6658 22.5072 11.1905 23.0319 11.8377 23.0319Z" fill="white"/>
<path d="M11.8377 48.8132C11.1905 48.8132 10.6658 49.3379 10.6658 49.9851C10.6658 50.6323 11.1905 51.157 11.8377 51.157H31.3836C32.0308 51.157 32.5555 50.6323 32.5555 49.9851C32.5555 49.3379 32.0308 48.8132 31.3836 48.8132H11.8377Z" fill="white"/>
<path d="M46.916 32.407C47.5632 32.407 48.0879 31.8823 48.0879 31.2351C48.0879 30.5879 47.5632 30.0632 46.916 30.0632H34.0626C33.4154 30.0632 32.8907 30.5879 32.8907 31.2351C32.8907 31.8823 33.4154 32.407 34.0626 32.407H46.916Z" fill="white"/>
<path d="M11.5216 32.407H28.5938C29.241 32.407 29.7657 31.8823 29.7657 31.2351C29.7657 30.5879 29.241 30.0632 28.5938 30.0632H11.5216C10.8744 30.0632 10.3497 30.5879 10.3497 31.2351C10.3497 31.8823 10.8744 32.407 11.5216 32.407Z" fill="white"/>
<path d="M11.5216 41.782H39.0155C39.6627 41.782 40.1874 41.2573 40.1874 40.6101C40.1874 39.9629 39.6627 39.4382 39.0155 39.4382H11.5216C10.8744 39.4382 10.3497 39.9629 10.3497 40.6101C10.3497 41.2573 10.8744 41.782 11.5216 41.782Z" fill="white"/>
<path d="M11.5216 60.532H34.328C34.9752 60.532 35.4999 60.0073 35.4999 59.3601C35.4999 58.7129 34.9752 58.1882 34.328 58.1882H11.5216C10.8744 58.1882 10.3497 58.7129 10.3497 59.3601C10.3497 60.0073 10.8744 60.532 11.5216 60.532Z" fill="white"/>
<path d="M79.9878 67.2847C79.9102 66.2017 79.4133 64.6078 77.4884 63.1583L67.3016 55.105L69.6177 52.7902C70.0623 53.0028 70.5611 53.1186 71.087 53.1188H71.0884C72.2003 53.1188 73.3313 52.6228 74.1914 51.7581C74.1941 51.7555 74.1967 51.7527 74.1994 51.7499C75.803 50.1308 75.9902 47.6905 74.6147 46.305L62.6783 34.3053C61.6116 33.1974 59.7855 33.1158 58.4372 33.846V23.6741C58.4372 22.1094 57.8219 20.6381 56.7045 19.5316L38.7233 1.7219C37.6067 0.61596 36.1219 0.00689697 34.5422 0.00689697H7.49234C3.36109 0.00689697 0 3.33487 0 7.42533V11.7699C0 12.4171 0.524687 12.9417 1.17188 12.9417C1.81906 12.9417 2.34375 12.4171 2.34375 11.7699V7.42533C2.34375 4.62705 4.65344 2.35049 7.49234 2.35049L35.3378 2.44362V17.5038C35.3378 20.4838 37.7803 22.9081 40.7827 22.9081H56.0061L56.0938 36.5885C55.7875 37.5438 55.8302 38.5427 56.2373 39.3692L45.6555 49.9456C44.2594 49.27 42.38 49.6321 41.0525 50.9531C39.5539 52.3939 39.1261 54.9183 40.6222 56.4081L52.5928 68.3766C53.4977 69.2891 54.8838 69.4975 56.0938 69.1255C56.1931 70.6832 55.7512 72.2419 54.5998 73.3494C53.6147 74.3275 52.3047 74.8666 50.903 74.8505L48.5033 74.8333C47.9589 73.7522 46.9719 72.9311 45.7811 72.61V71.618C45.7811 69.2486 43.8536 67.3211 41.4842 67.3211H27.0552C24.6858 67.3211 22.7583 69.2486 22.7583 71.618V72.61C21.6331 72.9135 20.6898 73.6631 20.13 74.6571H7.49234C4.65344 74.6571 2.34375 72.3805 2.34375 69.5822V17.2346C2.34375 16.5874 1.81906 16.0627 1.17188 16.0627C0.524687 16.0627 0 16.5874 0 17.2346V69.5822C0 73.6728 3.36109 77.0008 7.49234 77.0008H19.5791V78.0399C19.5791 79.1169 20.4552 79.993 21.5322 79.993H26.875C27.5222 79.993 28.0469 79.4683 28.0469 78.8211C28.0469 78.1739 27.5222 77.6492 26.875 77.6492H21.9228V76.7586C21.9228 75.6816 22.7989 74.8055 23.8759 74.8055H44.6637C45.7408 74.8055 46.6169 75.6816 46.6169 76.7586V77.6492H32.3438C31.6966 77.6492 31.1719 78.1739 31.1719 78.8211C31.1719 79.4683 31.6966 79.993 32.3438 79.993H47.0075C48.0845 79.993 48.9606 79.1169 48.9606 78.0399V77.1803C49.0294 77.1806 50.8744 77.1945 50.9423 77.1942C52.9492 77.1942 54.833 76.4206 56.2513 75.0124C57.6611 73.6127 58.4375 71.7533 58.4375 69.7771V67.4996C59.3723 66.3075 59.7105 64.6872 59.0564 63.3461L61.3062 61.0974L69.3434 71.3158C72.2253 74.818 75.1586 74.4656 78.0367 71.8652C79.408 70.4908 80.1009 68.8639 79.9878 67.2847ZM27.0553 69.6649H41.4844C42.5614 69.6649 43.4375 70.541 43.4375 71.618V72.4617H25.1022V71.618C25.1022 70.541 25.9783 69.6649 27.0553 69.6649ZM58.8989 36.3797C59.5117 35.8155 60.3266 35.4172 61.0161 35.9574L72.9525 47.9571C73.4086 48.4164 73.2114 49.4199 72.5306 50.1044C71.9003 50.6981 70.9734 51.112 70.3181 50.4328L65.8969 45.9881C65.4405 45.5294 64.6984 45.5274 64.2397 45.9838C63.7808 46.4402 63.7789 47.1822 64.2353 47.641L67.8344 51.2592C64.7322 54.3566 60.6234 58.466 57.5222 61.5663L47.4348 51.481L57.7748 41.1463L60.3473 43.7325C60.8037 44.1914 61.5458 44.1935 62.0045 43.7369C62.4634 43.2805 62.4653 42.5385 62.0089 42.0797L58.6059 38.6588C57.9837 38.1689 58.1663 37.1378 58.8989 36.3797ZM37.6816 17.5039V3.98877L54.4172 20.5646H40.7827C39.0727 20.5646 37.6816 19.1916 37.6816 17.5039ZM54.2492 66.7181L42.2786 54.7497C41.7406 54.0589 42.1341 53.2408 42.6947 52.6253C43.4389 51.8958 44.4667 51.7038 44.9487 52.3091L56.805 64.163C57.345 64.8556 56.9464 65.6802 56.382 66.2942C55.7013 66.9747 54.7044 67.1725 54.2492 66.7181ZM76.3773 70.2103C74.6028 71.9844 72.6834 71.9361 71.1945 69.8783L62.9758 59.4291L65.6327 56.7735L76.0461 65.006C78.1012 66.5 78.1484 68.4311 76.3773 70.2103Z" fill="white"/>
</g>
<defs>
<clipPath id="clip0_409_1513">
<rect width="80" height="80" fill="white"/>
</clipPath>
</defs>
</svg>
