<svg width="80" height="80" viewBox="0 0 80 80" fill="none" xmlns="http://www.w3.org/2000/svg">
<g id="fi_602275">
<g id="Group">
<g id="Group_2">
<path id="Vector" d="M79.1488 49.677C77.627 47.4408 74.5627 46.8489 72.3195 48.3564L62.1102 55.1889L62.0805 33.9217L65.6273 37.2444C66.3816 37.9508 67.365 38.3395 68.3975 38.3395C68.3994 38.3395 68.4016 38.3395 68.4036 38.3395C69.5183 38.338 70.5945 37.8708 71.3564 37.0575C72.0966 36.2673 72.4848 35.2364 72.4495 34.1542C72.4142 33.072 71.9595 32.0684 71.1694 31.3283L64.4452 25.0292C63.9848 24.598 63.2622 24.6216 62.8311 25.0819C62.4 25.5422 62.4236 26.2647 62.8838 26.6959L69.608 32.995C69.953 33.3181 70.1514 33.7562 70.1669 34.2286C70.1822 34.7009 70.0128 35.1511 69.6895 35.4959C69.352 35.8562 68.8942 36.055 68.4002 36.0556C68.3992 36.0556 68.3984 36.0556 68.3975 36.0556C67.947 36.0556 67.5178 35.8859 67.1886 35.5775L67.1884 35.5773L40.4881 10.565C40.0481 10.153 39.3634 10.1536 38.9245 10.5672L12.2936 35.6544C11.9497 35.9784 11.5 36.1481 11.0275 36.135C10.555 36.1209 10.1164 35.9236 9.79234 35.5794C9.46828 35.2355 9.2975 34.7858 9.31172 34.3134C9.32578 33.8409 9.52312 33.4023 9.86703 33.0783L38.4884 6.11609C39.1669 5.47687 40.2313 5.47531 40.9114 6.11281L57.6562 21.7991C58.1164 22.2302 58.8391 22.2067 59.2703 21.7464C59.7014 21.2861 59.6778 20.5636 59.2177 20.1323L42.473 4.44609C40.9147 2.98609 38.4767 2.98937 36.9225 4.45374L27.7602 13.085L27.7577 11.5455C27.757 11.0602 27.5673 10.6042 27.2237 10.2617C26.8808 9.91968 26.4255 9.7314 25.9411 9.7314C25.9402 9.7314 25.9394 9.7314 25.9384 9.7314L19.3842 9.74062C18.8989 9.74124 18.4431 9.93093 18.1005 10.2745C17.758 10.6181 17.5695 11.0745 17.5703 11.56L17.5884 22.6673L8.30109 31.4162C7.51297 32.1586 7.06125 33.1634 7.02891 34.2456C6.99656 35.3278 7.38766 36.3578 8.13 37.1456C8.87219 37.9337 9.87703 38.3856 10.9594 38.418C11.0008 38.4192 11.0422 38.4198 11.0836 38.4198C12.1203 38.4198 13.102 38.0308 13.8597 37.3167L17.3986 33.983L17.4127 44.0284C16.2677 43.8617 15.1092 43.7742 13.9455 43.7742H11.9916V43.0895C11.9916 40.7909 10.1214 38.9208 7.82281 38.9208H4.16875C1.87016 38.9206 0 40.7906 0 43.0894V60.9828C0 61.6134 0.51125 62.1247 1.14188 62.1247C1.7725 62.1247 2.28375 61.6134 2.28375 60.9828V43.0894C2.28375 42.05 3.12937 41.2044 4.16875 41.2044H7.82266C8.86203 41.2044 9.70766 42.05 9.70766 43.0894V44.9159V68.3216V70.1302C9.70766 71.1695 8.86203 72.0152 7.82266 72.0152H4.16875C3.12937 72.0152 2.28375 71.1695 2.28375 70.1302V68.132C2.28375 67.5014 1.7725 66.9902 1.14188 66.9902C0.51125 66.9902 0 67.5014 0 68.132V70.1302C0 72.4288 1.87016 74.2989 4.16875 74.2989H7.82266C10.1213 74.2989 11.9914 72.4289 11.9914 70.1302V69.975L28.7139 76.3075C28.7448 76.3192 28.7762 76.3295 28.8081 76.3384C29.5352 76.5438 30.2619 76.6467 30.9794 76.6467C31.3675 76.6467 31.753 76.6166 32.1345 76.5563L56.7097 73.0137C56.7155 73.013 56.7211 73.012 56.7269 73.0111C58.8162 72.6775 60.7873 71.7942 62.4269 70.457C62.4411 70.4455 62.4552 70.4334 62.4688 70.4211L78.3455 56.1417C80.1944 54.5003 80.5395 51.7211 79.1488 49.677ZM25.4745 12.0159L25.4798 15.2331L19.8686 20.5191L19.8547 12.0236L25.4745 12.0159ZM39.7095 12.965L59.7936 31.7794L59.8284 56.7158L56.5955 58.8795L53.1719 58.6875L53.0814 57.7781C52.7628 54.5753 50.3984 51.9989 47.272 51.3841L47.2514 36.5489C47.2498 35.4105 46.323 34.4853 45.1847 34.4853C45.1838 34.4853 45.183 34.4853 45.1819 34.4853L34.2984 34.5006C33.7464 34.5014 33.2277 34.717 32.838 35.108C32.4481 35.4987 32.2339 36.0181 32.2347 36.57L32.2528 49.5045C30.097 49.0117 28.0386 48.1978 26.1141 47.072C25.8739 46.9316 25.6314 46.7959 25.3869 46.6641C25.2916 46.6127 25.1947 46.5644 25.0986 46.5142C24.9498 46.4366 24.8014 46.3584 24.6511 46.2839C24.5314 46.2245 24.4103 46.1683 24.2897 46.1109C24.1617 46.0502 24.0339 45.9888 23.905 45.9302C23.7738 45.8706 23.6414 45.8139 23.5092 45.7567C23.3884 45.7045 23.2677 45.652 23.1461 45.6019C23.0102 45.5458 22.8734 45.4919 22.7366 45.4383C22.6152 45.3908 22.4936 45.3436 22.3716 45.298C22.2361 45.2473 22.1 45.1984 21.9636 45.1505C21.8356 45.1053 21.7075 45.0612 21.5788 45.0183C21.4481 44.9747 21.3172 44.932 21.1856 44.8906C21.0455 44.8464 20.9047 44.8042 20.7638 44.7625C20.6427 44.7269 20.5217 44.6912 20.4 44.6575C20.2411 44.6133 20.0814 44.5719 19.9216 44.5309C19.8467 44.5117 19.7723 44.49 19.697 44.4714L19.6794 31.8342L39.7095 12.965ZM44.988 51.0983L35.4372 49.9987L34.5373 49.8952L34.5189 36.7841L44.968 36.7694L44.988 51.0983ZM76.8239 54.4391L60.9628 68.7044C59.6411 69.7761 58.0556 70.485 56.3752 70.7547L31.8106 74.2956C31.8055 74.2964 31.8005 74.2972 31.7953 74.298L31.7783 74.3006C31.0341 74.4184 30.2591 74.3688 29.4745 74.1534L11.9916 67.5328V46.0578H13.9455C15.6088 46.0578 17.2608 46.2498 18.8695 46.6228C18.9294 46.6367 18.9891 46.6509 19.0487 46.6653C19.2464 46.713 19.4436 46.762 19.6398 46.8152C19.657 46.8198 19.6741 46.8248 19.6912 46.8295C19.888 46.8833 20.0839 46.94 20.2792 46.9992C20.3142 47.0098 20.3494 47.0203 20.3842 47.0311C20.592 47.0953 20.7989 47.1623 21.0047 47.2327C21.0259 47.24 21.047 47.2475 21.0683 47.2548C21.4969 47.4028 21.9212 47.5642 22.3403 47.7389C22.3631 47.7484 22.3859 47.758 22.4088 47.7677C22.6177 47.8555 22.8253 47.9462 23.0316 48.0406C23.037 48.0431 23.0427 48.0458 23.0481 48.0484C23.2475 48.14 23.4455 48.235 23.6422 48.3327C23.6653 48.3441 23.6886 48.3553 23.7117 48.3669C23.9039 48.463 24.0945 48.5625 24.2841 48.6644C24.3198 48.6836 24.3555 48.7033 24.3913 48.7227C24.5825 48.8269 24.7727 48.9331 24.9609 49.0433C27.6783 50.6328 30.6364 51.6623 33.7533 52.1034C33.7631 52.1048 33.7728 52.1061 33.7827 52.1072L46.5766 53.5802C46.6473 53.5903 46.7177 53.602 46.7875 53.6152C48.6709 53.9689 50.1575 55.3606 50.6548 57.173C50.7286 57.4414 50.7805 57.7192 50.8089 58.0041L50.8597 58.515L26.8816 56.4142C26.2538 56.3594 25.6994 56.8239 25.6444 57.452C25.5892 58.0803 26.0541 58.6342 26.6822 58.6892L52.0325 60.9103C52.0386 60.9108 52.0445 60.9106 52.0505 60.9111C52.0564 60.9116 52.0622 60.9125 52.0683 60.913L56.8491 61.1813C56.8705 61.1825 56.8917 61.183 56.913 61.183C56.9356 61.183 56.958 61.1794 56.9805 61.178C57.0059 61.1764 57.0314 61.1755 57.0567 61.1723C57.0908 61.168 57.1241 61.1606 57.1575 61.1533C57.1814 61.148 57.2055 61.1441 57.2289 61.1372C57.2655 61.1267 57.3006 61.1125 57.3361 61.0983C57.3552 61.0906 57.3748 61.0848 57.3936 61.0761C57.4469 61.0514 57.4988 61.023 57.5481 60.9898L61.6063 58.2741L61.6067 58.2736L73.5914 50.253C74.7972 49.4425 76.4431 49.7605 77.2605 50.9617C78.0077 52.0595 77.8222 53.5525 76.8239 54.4391Z" fill="white"/>
</g>
</g>
</g>
</svg>
