<svg width="80" height="80" viewBox="0 0 80 80" fill="none" xmlns="http://www.w3.org/2000/svg">
<g clip-path="url(#clip0_409_1511)">
<path d="M7.57796 58.8371C7.9253 59.4339 7.72312 60.199 7.1264 60.5464C6.92858 60.6615 6.71233 60.7162 6.49874 60.7162C6.06827 60.7162 5.64937 60.4937 5.41718 60.0948C1.12327 52.7184 -0.672978 44.3218 0.222803 35.8128C1.34124 25.1878 6.5303 15.6345 14.8342 8.91244C23.138 2.19041 33.5617 -0.895526 44.1873 0.222912C51.313 0.972912 58.0111 3.57729 63.7187 7.79166L62.8522 4.75447C62.6628 4.09057 63.0475 3.39885 63.7112 3.20947C64.375 3.01979 65.0669 3.40463 65.2564 4.06854L67.2176 10.9426C67.3231 11.3121 67.2526 11.7096 67.0267 12.0204C66.8008 12.3313 66.4444 12.521 66.0603 12.5348L58.9166 12.7915C58.9012 12.7921 58.8861 12.7923 58.8709 12.7923C58.2012 12.7923 57.6467 12.2618 57.6225 11.5871C57.5978 10.8973 58.137 10.3179 58.8269 10.2931L62.7022 10.1538C57.2522 5.99729 50.8011 3.43291 43.9255 2.70916C23.3647 0.545255 4.87343 15.5121 2.70905 36.0743C1.86937 44.0517 3.55296 51.9229 7.57796 58.8371ZM74.5822 19.9048C74.235 19.3082 73.4698 19.106 72.8731 19.4535C72.2766 19.8009 72.0745 20.5662 72.4219 21.1628C76.4472 28.076 78.1308 35.9473 77.2909 43.9256C76.2423 53.8863 71.3776 62.8426 63.593 69.1445C55.8083 75.4465 46.0345 78.3398 36.0745 77.2909C29.2025 76.5676 22.7472 74.0017 17.2983 69.8462L21.1731 69.707C21.863 69.6823 22.4022 69.1029 22.3775 68.4129C22.3526 67.7231 21.7789 67.1809 21.0834 67.2085L13.9397 67.4651C13.5556 67.4789 13.1994 67.6685 12.9733 67.9795C12.7475 68.2903 12.677 68.6878 12.7823 69.0573L14.7436 75.9314C14.9003 76.4807 15.4009 76.8387 15.945 76.8387C16.0586 76.8387 16.1741 76.8231 16.2886 76.7904C16.9523 76.601 17.337 75.9093 17.1476 75.2454L16.2812 72.2088C21.9883 76.4223 28.6909 79.0274 35.8125 79.7771C37.2392 79.9273 38.6608 80.0017 40.0756 80.0017C49.1973 80.0013 57.9769 76.907 65.1656 71.0876C73.4695 64.3656 78.6584 54.8121 79.777 44.1873C80.6731 35.677 78.8767 27.2803 74.5822 19.9048ZM21.4992 57.974V40.0053L21.2347 40.1974C21.2342 40.1978 21.2337 40.1981 21.2334 40.1984C19.018 41.8035 15.9094 41.3076 14.3037 39.092C12.6983 36.8765 13.1944 33.7679 15.41 32.1623L37.087 16.4131C38.8666 15.1235 41.2355 15.146 42.9869 16.467L64.5912 32.1634C66.8056 33.7681 67.3019 36.8767 65.6962 39.0921C64.9186 40.1654 63.7695 40.8715 62.4606 41.0806C62.1959 41.1229 61.9308 41.1437 61.6678 41.1437C60.6306 41.1437 59.6228 40.8188 58.7667 40.1985L58.5009 40.0054V57.9742C58.5009 61.5903 55.5591 64.5321 51.943 64.5321H28.057C24.4411 64.532 21.4992 61.5901 21.4992 57.974ZM43.8951 45.4757C43.8951 44.7882 43.3358 44.2289 42.6483 44.2289H37.352C36.6645 44.2289 36.1051 44.7882 36.1051 45.4757V62.032H43.8953V45.4757H43.8951ZM56.0008 38.189L40 26.5637L23.9992 38.189V57.9742C23.9992 60.2118 25.8195 62.0321 28.0572 62.0321H33.605V45.4759C33.605 43.4098 35.2859 41.729 37.3519 41.729H42.6481C44.7142 41.729 46.395 43.4098 46.395 45.4759V62.0321H51.9428C54.1803 62.0321 56.0008 60.2118 56.0008 57.9742V38.189ZM39.2653 24.0073C39.4842 23.8481 39.7422 23.7685 40 23.7685C40.2578 23.7685 40.5158 23.8481 40.7347 24.0073L60.2348 38.1749C60.7661 38.5599 61.4176 38.7153 62.0666 38.6117C62.7159 38.5079 63.2862 38.1576 63.6719 37.6251C64.4686 36.5257 64.2222 34.9834 63.123 34.1867L41.5076 18.4824C41.5008 18.4774 41.4937 18.4723 41.487 18.4671C40.6312 17.8184 39.4258 17.8057 38.5551 18.4367L16.8783 34.1859C15.7778 34.9834 15.5316 36.5259 16.3281 37.6251C17.1248 38.7243 18.6675 38.9706 19.7666 38.1742L39.2653 24.0073Z" fill="white"/>
</g>
<defs>
<clipPath id="clip0_409_1511">
<rect width="80" height="80" fill="white"/>
</clipPath>
</defs>
</svg>
