<svg width="16" height="17" viewBox="0 0 16 17" fill="none" xmlns="http://www.w3.org/2000/svg">
<path fill-rule="evenodd" clip-rule="evenodd" d="M2 0.5H14C15.1024 0.5 16 1.3968 16 2.5V14.5C16 15.6032 15.1024 16.5 14 16.5H2C0.8976 16.5 0 15.6032 0 14.5V2.5C0 1.3968 0.8976 0.5 2 0.5ZM14 15.7C14.6616 15.7 15.2 15.1616 15.2 14.5V2.5C15.2 1.8384 14.6616 1.3 14 1.3H2C1.3384 1.3 0.8 1.8384 0.8 2.5V14.5C0.8 15.1616 1.3384 15.7 2 15.7H14ZM13.3528 2.9304C13.304 2.9112 13.252 2.9 13.2 2.9H10C9.7792 2.9 9.6 3.0792 9.6 3.3C9.6 3.5208 9.7792 3.7 10 3.7H12.2344L9.7176 6.2168C9.5616 6.3728 9.5616 6.6264 9.7176 6.7824C9.7952 6.8608 9.8976 6.9 10 6.9C10.1024 6.9 10.2048 6.8608 10.2832 6.7832L12.8 4.2656V6.5C12.8 6.7208 12.9792 6.9 13.2 6.9C13.4208 6.9 13.6 6.7208 13.6 6.5V3.3C13.6 3.248 13.5896 3.196 13.5688 3.1472C13.5288 3.0496 13.4504 2.9712 13.3528 2.9304ZM6.2832 10.2168C6.1272 10.0608 5.8736 10.0608 5.7176 10.2168L3.2 12.7344V10.5C3.2 10.2792 3.0208 10.1 2.8 10.1C2.5792 10.1 2.4 10.2792 2.4 10.5V13.7C2.4 13.752 2.4104 13.804 2.4312 13.8528C2.4712 13.9504 2.5496 14.0288 2.648 14.0696C2.696 14.0888 2.748 14.1 2.8 14.1H6C6.2208 14.1 6.4 13.9208 6.4 13.7C6.4 13.4792 6.2208 13.3 6 13.3H3.7656L6.2824 10.7832C6.4392 10.6264 6.4392 10.3736 6.2832 10.2168Z" fill="white"/>
</svg>
