<svg width="138" height="25" viewBox="0 0 138 25" fill="none" xmlns="http://www.w3.org/2000/svg">
<path fill-rule="evenodd" clip-rule="evenodd" d="M130.74 9.55682C145.374 15.6682 132.209 29.8198 120.547 23.3383V23.3271L119.908 22.9795C120.137 22.0379 120.653 19.9605 121.037 18.4147C121.179 17.8433 121.303 17.3446 121.388 17.0026C123.171 17.9894 124.943 18.7856 127.544 18.8305C130.381 18.8305 131.727 16.5205 127.028 15.1973C111.789 9.38862 125.436 -4.93113 136.347 1.72974C136.194 2.27512 135.939 3.19399 135.668 4.16681C135.305 5.47425 134.915 6.87912 134.71 7.60566C132.299 5.25081 121.881 6.03576 130.74 9.55682ZM102.919 23.3383C114.581 29.8198 127.746 15.657 113.112 9.55683C104.254 6.03576 114.66 5.25081 117.082 7.60566C117.429 6.33853 118.36 3.00809 118.719 1.72974C107.808 -4.93112 94.1725 9.39983 109.401 15.1973C114.099 16.5205 112.753 18.8417 109.916 18.8305C107.326 18.7856 105.543 17.9894 103.771 17.0026C103.677 17.3818 103.536 17.9537 103.376 18.6036L103.374 18.6106L103.372 18.6193C102.997 20.1391 102.518 22.0789 102.291 22.9795L102.93 23.3271L102.919 23.3383ZM0.135436 1.49425C0.126457 2.38311 0.101529 3.3388 0.0754675 4.33794C-0.158869 13.3218 -0.484836 25.8187 9.86882 24.8297C20.6051 25.5224 20.2855 14.0105 20.0431 5.28191V5.28189V5.28186V5.28184V5.28181V5.28179C19.9952 3.55369 19.9502 1.93469 19.9947 0.541102H13.132C12.9532 1.39118 13.0376 3.27932 13.1386 5.53762C13.3987 11.3523 13.7685 19.621 10.037 18.9426C6.30638 19.1327 6.70467 11.5013 6.99947 5.85296C7.12202 3.50478 7.22669 1.49933 7.00936 0.541102H0.135436V1.49425ZM34.5611 9.09706L29.986 1.02329L29.7169 0.541102H22.3944V24.4709H28.8646C28.8646 23.7596 28.866 22.9577 28.8674 22.1027C28.8731 18.6842 28.8803 14.4165 28.8086 11.6986C30.0568 14.1654 33.318 20.0454 35.136 23.3232L35.136 23.3233L35.1376 23.3262L35.1508 23.3501L35.1547 23.357L35.1667 23.3786C35.3941 23.7888 35.5983 24.1569 35.7722 24.4709H42.5115V0.541102H36.0413C36.0444 1.39547 36.0424 2.43231 36.0401 3.54813V3.5482V3.54827V3.54835V3.54844V3.54852C36.0344 6.46006 36.0275 9.90924 36.1086 12.0574L34.5611 9.09706ZM44.9561 24.4709V1.49425V0.541102H51.8188V24.4709H44.9561ZM65.8022 8.61488L63.6492 1.22513L63.4473 0.541102H55.2166C55.1934 0.849264 54.4928 11.8703 54.0493 18.8477L54.0488 18.8558L54.0462 18.896L54.0448 18.9182L54.042 18.9626C53.8437 22.0825 53.6984 24.3669 53.6915 24.4709H60.2178C60.2588 23.5728 60.3313 22.1617 60.4112 20.6075L60.4112 20.6065C60.5498 17.911 60.7104 14.785 60.7673 13.1564C61.2046 14.8608 63.2791 22.3403 63.7725 24.112H69.0765C69.8054 21.7684 72.0369 14.6254 72.7546 12.349C72.82 14.7581 73.1185 21.5333 73.2382 24.2476L73.2382 24.2494L73.2383 24.2516L73.248 24.4709H79.9088H79.9986H87.0855C87.1528 24.2354 88.5097 19.2341 88.6218 18.8192H93.5221C93.6455 19.2117 95.1593 24.269 95.2154 24.4709H102.571L102.19 23.2374H102.201L95.3387 1.21392L95.1257 0.541102H87.2201C87.1805 0.669695 86.5311 2.79647 85.6342 5.73379C83.6686 12.1713 80.5142 22.5021 79.9852 24.224C79.8492 21.696 78.7415 1.00843 78.7202 0.541102H70.5904C70.3321 1.37321 70.0166 2.36243 69.6763 3.42931C68.6868 6.53188 67.4878 10.2911 66.8787 12.7527L65.8022 8.61488ZM90.943 5.21716C90.4384 7.78507 89.3731 11.6201 88.6218 14.1432H93.4885C92.726 11.6425 91.6158 7.70658 91.0439 5.21716H90.943Z" fill="white"/>
</svg>
