<svg width="140" height="100" viewBox="0 0 140 100" fill="none" xmlns="http://www.w3.org/2000/svg">
<path d="M0 80.2373C0.633842 80.1355 1.55065 80.0449 2.9202 80.0449C4.17656 80.0449 5.07073 80.3166 5.6593 80.7693C6.22523 81.1994 6.6327 81.9351 6.6327 82.8519C6.6327 83.6895 6.36105 84.4479 5.82908 84.9346C5.11601 85.591 4.08602 85.8966 2.79569 85.8966C2.49009 85.8966 2.21845 85.874 2.02603 85.84V88.964H0V80.2487V80.2373ZM2.01471 84.2441C2.20713 84.2894 2.44482 84.312 2.78438 84.312C3.88228 84.312 4.60667 83.8027 4.60667 82.8859C4.60667 82.0596 3.98415 81.6182 2.93152 81.6182C2.46746 81.6182 2.16185 81.6522 2.01471 81.6861V84.2554V84.2441Z" fill="white"/>
<path d="M7.94566 80.2491C8.60213 80.1359 9.62081 80.0566 10.7866 80.0566C12.1901 80.0566 13.1069 80.2717 13.7408 80.7697C14.2501 81.1659 14.5784 81.7997 14.5784 82.626C14.5784 83.8031 13.6842 84.5614 12.9938 84.7878V84.8331C13.5936 85.0821 13.9445 85.682 14.1822 86.4403C14.4878 87.4477 14.7481 88.6135 14.9292 88.9644H12.8579C12.7221 88.704 12.4957 88.0589 12.2128 86.927C11.9411 85.8178 11.5563 85.5348 10.6621 85.5122H9.97169V88.9644H7.95697V80.2491H7.94566ZM9.97169 84.0295H10.8885C11.9298 84.0295 12.5636 83.5541 12.5636 82.7957C12.5636 81.9695 11.9411 81.596 11.0017 81.596C10.4244 81.596 10.1188 81.6299 9.97169 81.6639V84.0295Z" fill="white"/>
<path d="M24.7877 84.4823C24.7877 87.2328 22.8975 89.123 20.0792 89.123C17.2609 89.123 15.5744 87.1875 15.5744 84.6408C15.5744 81.9243 17.4759 79.9775 20.215 79.9775C22.9541 79.9775 24.7764 81.9017 24.7764 84.4823H24.7877ZM17.7476 84.5729C17.7476 86.2141 18.687 87.4931 20.1924 87.4931C21.6978 87.4931 22.6259 86.2254 22.6259 84.5389C22.6259 82.9317 21.7204 81.5848 20.1924 81.5848C18.6644 81.5848 17.7476 82.9091 17.7476 84.5729Z" fill="white"/>
<path d="M26.1573 80.2373C26.8025 80.1355 27.708 80.0449 29.0775 80.0449C30.3339 80.0449 31.228 80.3166 31.8166 80.7693C32.3825 81.1994 32.79 81.9351 32.79 82.8519C32.79 83.6895 32.5184 84.4479 31.9864 84.9346C31.2733 85.591 30.2433 85.8966 28.953 85.8966C28.6474 85.8966 28.3757 85.874 28.1833 85.84V88.964H26.1686V80.2487L26.1573 80.2373ZM28.172 84.2441C28.3531 84.2894 28.6021 84.312 28.9417 84.312C30.0396 84.312 30.764 83.8027 30.764 82.8859C30.764 82.0596 30.1415 81.6182 29.0888 81.6182C28.6248 81.6182 28.3192 81.6522 28.172 81.6861V84.2554V84.2441Z" fill="white"/>
<path d="M39.717 85.2744H36.1403V87.2778H40.1244V88.9642H34.103V80.1357H39.932V81.8222H36.1403V83.5992H39.717V85.2857V85.2744Z" fill="white"/>
<path d="M41.5166 80.2491C42.1731 80.1359 43.1918 80.0566 44.3576 80.0566C45.7611 80.0566 46.6779 80.2717 47.3118 80.7697C47.8211 81.1659 48.1493 81.7997 48.1493 82.626C48.1493 83.8031 47.2552 84.5614 46.5647 84.7878V84.8331C47.1646 85.0821 47.5155 85.682 47.7532 86.4403C48.0588 87.4477 48.3191 88.6135 48.5002 88.9644H46.4289C46.2931 88.704 46.0667 88.0589 45.7837 86.927C45.5121 85.8178 45.1273 85.5348 44.2331 85.5122H43.5427V88.9644H41.5279V80.2491H41.5166ZM43.5313 84.0295H44.4482C45.4895 84.0295 46.1233 83.5541 46.1233 82.7957C46.1233 81.9695 45.5008 81.596 44.5613 81.596C43.9841 81.596 43.6785 81.6299 43.5313 81.6639V84.0295Z" fill="white"/>
<path d="M51.5562 81.8331H48.9643V80.124H56.2308V81.8331H53.5936V88.9639H51.5562V81.8331Z" fill="white"/>
<path d="M59.6038 88.9642V85.2631L56.6043 80.1357H58.9812L59.9546 82.2636C60.2489 82.9201 60.4527 83.3276 60.6904 83.8935H60.713C60.928 83.3729 61.1657 82.8975 61.4487 82.275L62.4334 80.1357H64.7764L61.6298 85.1952V88.9642H59.5925H59.6038Z" fill="white"/>
<path d="M68.7492 86.8027C69.3264 87.1083 70.2093 87.4252 71.1601 87.4252C72.1108 87.4252 72.5862 87.063 72.5862 86.4744C72.5862 85.9651 72.1674 85.6482 71.0356 85.3086C69.5075 84.8559 68.4096 84.0975 68.4096 82.6487C68.4096 81.1094 69.7452 79.9775 71.8505 79.9775C72.971 79.9775 73.7407 80.1926 74.3293 80.4642L73.8426 82.1054C73.4691 81.9357 72.7673 81.6414 71.8052 81.6414C70.911 81.6414 70.4923 82.0262 70.4923 82.4789C70.4923 83.0562 71.0469 83.2939 72.224 83.6787C73.8765 84.222 74.6801 85.003 74.6801 86.3612C74.6801 87.7874 73.6049 89.123 71.0016 89.123C69.9263 89.123 68.8511 88.8174 68.3078 88.5118L68.7492 86.8027Z" fill="white"/>
<path d="M84.9461 84.4823C84.9461 87.2328 83.0559 89.123 80.2376 89.123C77.4193 89.123 75.7328 87.1875 75.7328 84.6408C75.7328 81.9243 77.6343 79.9775 80.3734 79.9775C83.1125 79.9775 84.9348 81.9017 84.9348 84.4823H84.9461ZM77.906 84.5729C77.906 86.2141 78.8454 87.4931 80.3508 87.4931C81.8561 87.4931 82.7843 86.2254 82.7843 84.5389C82.7843 82.9317 81.8788 81.5848 80.3508 81.5848C78.8228 81.5848 77.906 82.9091 77.906 84.5729Z" fill="white"/>
<path d="M86.3044 80.124H88.3417V87.2095H92.1787V88.9525H86.3044V80.124Z" fill="white"/>
<path d="M95.0084 80.124V84.9797C95.0084 86.5869 95.6422 87.4811 96.8193 87.4811C97.9965 87.4811 98.653 86.6096 98.653 84.9797V80.124H100.69V84.9231C100.69 87.798 99.1849 89.111 96.7288 89.111C94.4311 89.111 92.971 87.8886 92.971 84.8778V80.124H95.0084Z" fill="white"/>
<path d="M104.358 81.8331H101.766V80.124H109.032V81.8331H106.395V88.9639H104.358V81.8331Z" fill="white"/>
<path d="M112.145 80.124V88.9525H110.107V80.124H112.145Z" fill="white"/>
<path d="M122.728 84.4823C122.728 87.2328 120.837 89.123 118.019 89.123C115.201 89.123 113.514 87.1875 113.514 84.6408C113.514 81.9243 115.416 79.9775 118.155 79.9775C120.894 79.9775 122.716 81.9017 122.716 84.4823H122.728ZM115.687 84.5729C115.687 86.2141 116.627 87.4931 118.132 87.4931C119.638 87.4931 120.566 86.2254 120.566 84.5389C120.566 82.9317 119.66 81.5848 118.132 81.5848C116.604 81.5848 115.687 82.9091 115.687 84.5729Z" fill="white"/>
<path d="M124.097 88.9642V80.1357H126.61L128.557 83.3049C129.157 84.3123 129.689 85.4102 130.13 86.4855H130.164C130.028 85.2291 130.017 84.1652 130.017 82.9201V80.1357H131.907V88.9642H129.7L127.674 85.546C127.085 84.5274 126.463 83.3842 125.976 82.275H125.931C125.999 83.5426 126.01 84.7537 126.01 86.0893V88.9642H124.12H124.097Z" fill="white"/>
<path d="M133.82 86.8027C134.397 87.1083 135.28 87.4252 136.231 87.4252C137.181 87.4252 137.657 87.063 137.657 86.4744C137.657 85.9651 137.238 85.6482 136.106 85.3086C134.578 84.8559 133.48 84.0975 133.48 82.6487C133.48 81.1094 134.816 79.9775 136.921 79.9775C138.042 79.9775 138.811 80.1926 139.4 80.4642L138.913 82.1054C138.54 81.9357 137.838 81.6414 136.876 81.6414C135.982 81.6414 135.563 82.0262 135.563 82.4789C135.563 83.0562 136.118 83.2939 137.295 83.6787C138.947 84.222 139.751 85.003 139.751 86.3612C139.751 87.7874 138.676 89.123 136.072 89.123C134.997 89.123 133.922 88.8174 133.378 88.5118L133.82 86.8027Z" fill="white"/>
<path d="M28.0588 99.5699C27.5495 99.8416 26.8704 99.9887 26.2365 99.9887C24.8104 99.9887 24.1199 99.0946 24.1199 97.8042C24.1199 96.2083 25.2631 94.4766 27.0288 94.4766C28.0475 94.4766 28.6813 95.0764 28.6813 95.9593C28.6813 97.3175 27.3005 97.7476 25.3084 97.7024C25.2858 97.8835 25.331 98.2457 25.4442 98.4494C25.648 98.8116 26.0102 98.9927 26.4969 98.9927C27.0741 98.9927 27.5382 98.8455 27.9117 98.6418L28.0249 99.5586L28.0588 99.5699ZM26.893 95.416C26.1233 95.416 25.614 96.1178 25.4669 96.7629C26.7345 96.7629 27.5495 96.6045 27.5495 95.9593C27.5495 95.6197 27.2892 95.416 26.893 95.416Z" fill="white"/>
<path d="M30.8092 94.6011L31.2054 95.5518C31.3638 95.9367 31.4544 96.197 31.5449 96.4234H31.5789C31.7713 96.1404 31.8958 95.9253 32.1222 95.5971L32.8579 94.6011H34.2727L32.1109 97.1704L33.3106 99.8755H31.9637L31.5562 98.8795C31.3978 98.4947 31.3186 98.257 31.2054 97.9401H31.1827C31.0356 98.1777 30.8885 98.4381 30.6508 98.789L29.8471 99.8869H28.421L30.6621 97.1704L29.4623 94.6124H30.8092V94.6011Z" fill="white"/>
<path d="M37.5664 99.6717C37.2608 99.8188 36.7402 99.9773 36.0837 99.9773C34.7934 99.9773 34.0011 99.1284 34.0011 97.8721C34.0011 96.0271 35.3593 94.4878 37.2608 94.4878C37.7136 94.4878 38.1211 94.601 38.3135 94.6802L37.9965 95.6649C37.8041 95.5744 37.5664 95.5065 37.2156 95.5065C36.0384 95.5065 35.2801 96.627 35.2801 97.7249C35.2801 98.5172 35.7215 98.9586 36.4119 98.9586C36.8873 98.9586 37.2495 98.8341 37.4985 98.7096L37.5551 99.6717H37.5664Z" fill="white"/>
<path d="M42.3655 99.5699C41.8562 99.8416 41.1771 99.9887 40.5432 99.9887C39.1171 99.9887 38.4267 99.0946 38.4267 97.8042C38.4267 96.2083 39.5698 94.4766 41.3355 94.4766C42.3542 94.4766 42.9881 95.0764 42.9881 95.9593C42.9881 97.3175 41.6072 97.7476 39.6151 97.7024C39.5925 97.8835 39.6378 98.2457 39.7509 98.4494C39.9547 98.8116 40.3169 98.9927 40.8036 98.9927C41.3808 98.9927 41.8449 98.8455 42.2184 98.6418L42.3316 99.5586L42.3655 99.5699ZM41.1884 95.416C40.4187 95.416 39.9094 96.1178 39.7623 96.7629C41.0299 96.7629 41.8449 96.6045 41.8449 95.9593C41.8449 95.6197 41.5846 95.416 41.1884 95.416Z" fill="white"/>
<path d="M43.3955 99.8753L44.8217 92.1899H46.0554L44.6179 99.8753H43.3955Z" fill="white"/>
<path d="M46.0214 99.8753L47.4476 92.1899H48.6813L47.2438 99.8753H46.0214Z" fill="white"/>
<path d="M52.6881 99.5699C52.1788 99.8416 51.4997 99.9887 50.8658 99.9887C49.4397 99.9887 48.7492 99.0946 48.7492 97.8042C48.7492 96.2083 49.8924 94.4766 51.6581 94.4766C52.6768 94.4766 53.3106 95.0764 53.3106 95.9593C53.3106 97.3175 51.9298 97.7476 49.9377 97.7024C49.9151 97.8835 49.9603 98.2457 50.0735 98.4494C50.2773 98.8116 50.6394 98.9927 51.1261 98.9927C51.7034 98.9927 52.1675 98.8455 52.541 98.6418L52.6542 99.5586L52.6881 99.5699ZM51.511 95.416C50.7413 95.416 50.232 96.1178 50.0848 96.7629C51.3525 96.7629 52.1675 96.6045 52.1675 95.9593C52.1675 95.6197 51.9071 95.416 51.511 95.416Z" fill="white"/>
<path d="M53.7068 99.8754L54.3746 96.2422C54.4991 95.6196 54.5783 95.065 54.6349 94.6123H55.7328L55.6196 95.5517H55.6422C56.1176 94.85 56.7741 94.4878 57.4872 94.4878C58.2002 94.4878 58.8001 94.9405 58.8001 95.9366C58.8001 96.1743 58.7549 96.5478 58.7096 96.8081L58.155 99.8868H56.9212L57.4645 96.91C57.4985 96.7176 57.5324 96.4912 57.5324 96.2761C57.5324 95.8347 57.374 95.5178 56.8873 95.5178C56.3327 95.5178 55.6083 96.2082 55.3932 97.4419L54.9518 99.8754H53.7294H53.7068Z" fill="white"/>
<path d="M63.1918 99.6717C62.8862 99.8188 62.3655 99.9773 61.709 99.9773C60.4187 99.9773 59.6264 99.1284 59.6264 97.8721C59.6264 96.0271 60.9846 94.4878 62.8862 94.4878C63.3389 94.4878 63.7464 94.601 63.9388 94.6802L63.6219 95.6649C63.4295 95.5744 63.1918 95.5065 62.8409 95.5065C61.6524 95.5065 60.9054 96.627 60.9054 97.7249C60.9054 98.5172 61.3468 98.9586 62.0373 98.9586C62.5126 98.9586 62.8748 98.8341 63.1239 98.7096L63.1804 99.6717H63.1918Z" fill="white"/>
<path d="M67.9909 99.5699C67.4815 99.8416 66.8024 99.9887 66.1686 99.9887C64.7424 99.9887 64.052 99.0946 64.052 97.8042C64.052 96.2083 65.1952 94.4766 66.9609 94.4766C67.9796 94.4766 68.6134 95.0764 68.6134 95.9593C68.6134 97.3175 67.2325 97.7476 65.2405 97.7024C65.2178 97.8835 65.2631 98.2457 65.3763 98.4494C65.58 98.8116 65.9422 98.9927 66.4289 98.9927C67.0062 98.9927 67.4702 98.8455 67.8437 98.6418L67.9569 99.5586L67.9909 99.5699ZM66.8251 95.416C66.0554 95.416 65.5461 96.1178 65.3989 96.7629C66.6666 96.7629 67.4815 96.6045 67.4815 95.9593C67.4815 95.6197 67.2212 95.416 66.8251 95.416Z" fill="white"/>
<path d="M70.9563 99.8755L71.9411 94.6011H73.1635L72.1787 99.8755H70.9563ZM72.1221 93.1636C72.1221 92.7222 72.4617 92.4053 72.8579 92.4053C73.254 92.4053 73.5143 92.6769 73.5143 93.0731C73.503 93.5371 73.1635 93.8314 72.7447 93.8314C72.3712 93.8314 72.1221 93.5598 72.1221 93.1636Z" fill="white"/>
<path d="M73.5822 99.8754L74.25 96.2422C74.3745 95.6196 74.4538 95.065 74.5104 94.6123H75.6083L75.4951 95.5517H75.5177C75.9931 94.85 76.6496 94.4878 77.3627 94.4878C78.0757 94.4878 78.6756 94.9405 78.6756 95.9366C78.6756 96.1743 78.6303 96.5478 78.5851 96.8081L78.0305 99.8868H76.7967L77.34 96.91C77.374 96.7176 77.4079 96.4912 77.4079 96.2761C77.4079 95.8347 77.2495 95.5178 76.7628 95.5178C76.2082 95.5178 75.4838 96.2082 75.2687 97.4419L74.8273 99.8754H73.6049H73.5822Z" fill="white"/>
<path d="M81.4487 98.6983C81.709 98.8454 82.2183 99.0492 82.6824 99.0492C83.1804 99.0492 83.4747 98.7549 83.4747 98.404C83.4747 98.0758 83.3049 97.8607 82.7956 97.5891C82.207 97.2608 81.7769 96.8194 81.7769 96.2195C81.7769 95.2009 82.6484 94.4878 83.8595 94.4878C84.4028 94.4878 84.8442 94.6123 85.0593 94.7594L84.7537 95.6649C84.55 95.5517 84.2104 95.4272 83.7916 95.4272C83.3276 95.4272 83.0106 95.6762 83.0106 96.0384C83.0106 96.344 83.237 96.5478 83.6784 96.7741C84.2444 97.0911 84.7424 97.5212 84.7424 98.189C84.7424 99.3548 83.7916 100.011 82.5579 99.9999C81.958 99.9999 81.3921 99.8189 81.1204 99.6151L81.4373 98.7209L81.4487 98.6983Z" fill="white"/>
<path d="M89.5528 99.5699C89.0434 99.8416 88.3643 99.9887 87.7305 99.9887C86.3043 99.9887 85.6139 99.0946 85.6139 97.8042C85.6139 96.2083 86.7571 94.4766 88.5228 94.4766C89.5415 94.4766 90.1753 95.0764 90.1753 95.9593C90.1753 97.3175 88.7944 97.7476 86.8024 97.7024C86.7797 97.8835 86.825 98.2457 86.9382 98.4494C87.1419 98.8116 87.5041 98.9927 87.9908 98.9927C88.5681 98.9927 89.0321 98.8455 89.4056 98.6418L89.5188 99.5586L89.5528 99.5699ZM88.387 95.416C87.6173 95.416 87.108 96.1178 86.9608 96.7629C88.2285 96.7629 89.0434 96.6045 89.0434 95.9593C89.0434 95.6197 88.7831 95.416 88.387 95.416Z" fill="white"/>
<path d="M90.5828 99.8754L91.1827 96.627C91.3185 95.88 91.3977 95.065 91.443 94.601H92.507C92.473 94.9632 92.439 95.3254 92.3938 95.7102H92.4277C92.7786 95.0084 93.3332 94.4878 94.035 94.4878C94.1255 94.4878 94.2274 94.4878 94.3066 94.4878L94.0689 95.7215C94.001 95.7215 93.9218 95.7215 93.8312 95.7215C92.9597 95.7215 92.3938 96.627 92.19 97.7589L91.7939 99.8868H90.5715L90.5828 99.8754Z" fill="white"/>
<path d="M96.027 94.6011L96.3553 97.227C96.4232 97.8608 96.4685 98.257 96.5024 98.6079H96.5364C96.6609 98.2683 96.808 97.8948 97.091 97.2609L98.37 94.6124H99.7282L96.8646 99.8869H95.6309L94.7594 94.6124H96.027V94.6011Z" fill="white"/>
<path d="M99.6037 99.8755L100.588 94.6011H101.811L100.826 99.8755H99.6037ZM100.77 93.1636C100.77 92.7222 101.109 92.4053 101.505 92.4053C101.901 92.4053 102.162 92.6769 102.162 93.0731C102.15 93.5371 101.811 93.8314 101.392 93.8314C101.019 93.8314 100.77 93.5598 100.77 93.1636Z" fill="white"/>
<path d="M105.908 99.6717C105.603 99.8188 105.082 99.9773 104.425 99.9773C103.135 99.9773 102.343 99.1284 102.343 97.8721C102.343 96.0271 103.701 94.4878 105.603 94.4878C106.055 94.4878 106.463 94.601 106.655 94.6802L106.338 95.6649C106.146 95.5744 105.908 95.5065 105.557 95.5065C104.38 95.5065 103.622 96.627 103.622 97.7249C103.622 98.5172 104.063 98.9586 104.754 98.9586C105.229 98.9586 105.591 98.8341 105.84 98.7096L105.897 99.6717H105.908Z" fill="white"/>
<path d="M110.696 99.5699C110.187 99.8416 109.508 99.9887 108.874 99.9887C107.448 99.9887 106.757 99.0946 106.757 97.8042C106.757 96.2083 107.9 94.4766 109.666 94.4766C110.685 94.4766 111.318 95.0764 111.318 95.9593C111.318 97.3175 109.938 97.7476 107.946 97.7024C107.923 97.8835 107.968 98.2457 108.081 98.4494C108.285 98.8116 108.647 98.9927 109.134 98.9927C109.711 98.9927 110.175 98.8455 110.549 98.6418L110.662 99.5586L110.696 99.5699ZM109.53 95.416C108.76 95.416 108.251 96.1178 108.104 96.7629C109.372 96.7629 110.187 96.6045 110.187 95.9593C110.187 95.6197 109.926 95.416 109.53 95.416Z" fill="white"/>
<path d="M111.85 98.6983C112.111 98.8454 112.62 99.0492 113.084 99.0492C113.582 99.0492 113.876 98.7549 113.876 98.404C113.876 98.0758 113.707 97.8607 113.197 97.5891C112.609 97.2608 112.179 96.8194 112.179 96.2195C112.179 95.2009 113.05 94.4878 114.261 94.4878C114.805 94.4878 115.246 94.6123 115.461 94.7594L115.155 95.6649C114.952 95.5517 114.612 95.4272 114.193 95.4272C113.729 95.4272 113.412 95.6762 113.412 96.0384C113.412 96.344 113.639 96.5478 114.08 96.7741C114.646 97.0911 115.144 97.5212 115.144 98.189C115.144 99.3548 114.193 100.011 112.96 99.9999C112.36 99.9999 111.794 99.8189 111.522 99.6151L111.839 98.7209L111.85 98.6983Z" fill="white"/>
<path d="M138.902 95.3369H120.6V98.5967H138.902V95.3369Z" fill="#F27A21"/>
<path d="M20.2376 95.3369H0.294273V98.5967H20.2376V95.3369Z" fill="#F27A21"/>
<path d="M0.407464 50.0397C0.316915 59.004 -1.38088 74.7029 10.232 73.5937C23.2144 74.4313 20.1811 57.5892 20.4527 49.0776H13.5257C12.8806 52.145 15.631 68.6022 10.4018 67.6515C5.07073 67.9231 8.09279 52.3714 7.34577 49.0776H0.407464V50.0397Z" fill="white"/>
<path d="M35.1556 57.7137L30.5376 49.5643L30.2659 49.0776H22.8749V73.2315H29.4057C29.4057 69.6435 29.4397 63.7692 29.3491 60.3396C30.7753 63.158 34.8047 70.3906 36.378 73.2315H43.1805V49.0776H36.6496C36.661 52.1903 36.6044 57.7024 36.7175 60.7018L35.1556 57.7137Z" fill="white"/>
<path d="M45.6479 50.0397V73.2315H52.5749V49.0776H45.6479V50.0397Z" fill="white"/>
<path d="M66.6892 57.227L64.516 49.7681L64.3123 49.0776H56.0044C55.9705 49.5304 54.4877 72.892 54.4651 73.2315H61.0525C61.1657 70.7528 61.5166 64.403 61.6071 61.8111C62.0486 63.5315 64.1425 71.081 64.6405 72.8693H69.9942C70.7299 70.5037 72.9823 63.2938 73.7067 60.9961C73.7746 63.4975 74.0916 70.6622 74.2047 73.2315H81.0186C80.9959 72.8241 79.7509 49.5757 79.7282 49.0776H71.5222C70.5036 52.36 68.602 58.0646 67.7758 61.4036L66.6892 57.227Z" fill="white"/>
<path d="M103.429 71.9865L96.5024 49.7568L96.2874 49.0776H88.3077C88.1719 49.5191 80.9167 73.2881 80.928 73.2315H88.1719C88.2398 72.9938 89.6094 67.9457 89.7226 67.527H94.6688C94.7933 67.9231 96.3213 73.0278 96.3779 73.2315H103.803L103.418 71.9865H103.429ZM89.7226 62.8071C90.4809 60.2604 91.5562 56.3895 92.0655 53.7975H92.1674C92.7446 56.3102 93.8652 60.2831 94.6349 62.8071H89.7226Z" fill="white"/>
<path d="M104.154 72.0882C115.925 78.6304 129.213 64.335 114.442 58.1776C105.501 54.6236 116.004 53.8313 118.449 56.2082C118.8 54.9292 119.739 51.5676 120.102 50.2772C109.089 43.554 95.3253 58.0192 110.696 63.8709C115.438 65.2065 114.08 67.5494 111.217 67.5381C108.602 67.4928 106.802 66.6892 105.014 65.6932C104.697 66.9722 103.848 70.4244 103.52 71.726L104.165 72.0769L104.154 72.0882Z" fill="white"/>
<path d="M121.947 72.0881C133.718 78.6303 147.006 64.3462 132.235 58.1776C123.294 54.6235 133.809 53.8312 136.242 56.2081C136.604 54.9291 137.532 51.5675 137.895 50.2772C126.882 43.5539 113.107 58.0078 128.489 63.8708C133.231 65.2064 131.873 67.5381 129.009 67.5381C126.384 67.4928 124.595 66.6892 122.796 65.6931C122.479 66.9721 121.618 70.4243 121.301 71.7259L121.947 72.0768V72.0881Z" fill="white"/>
<path d="M76.7628 44.9235L83.6671 0L60.0112 9.29257L60.4753 11.9638L79.5245 5.98754L76.7628 44.9235Z" fill="#F27A21"/>
<path d="M68.6586 49.8923L67.7418 11.4204L45.6479 17.9512L52.4617 43.6332L50.9903 32.8578L57.5211 31.5675L60.0112 46.7571L58.6304 31.3864L65.8969 30.0056L68.6586 49.8923ZM50.8997 31.941L49.3378 20.0678L55.597 18.687L57.2495 30.198L50.8997 31.9524V31.941ZM58.4493 29.8245L57.4419 18.0418L63.7916 16.7515L65.6366 28.2625L58.4606 29.8245H58.4493Z" fill="white"/>
<path d="M76.344 27.4363C76.3779 29.3604 73.3559 29.3604 73.3785 27.4363C73.3559 25.5121 76.3666 25.5121 76.344 27.4363Z" fill="white"/>
</svg>
