<svg width="113" height="80" viewBox="0 0 113 80" fill="none" xmlns="http://www.w3.org/2000/svg">
<g clip-path="url(#clip0_1153_1138)">
<path d="M0 64.5087C0.515293 64.4289 1.25188 64.3586 2.35197 64.3586C3.36738 64.3586 4.08479 64.5686 4.55295 64.9271C5.00833 65.264 5.33588 65.8468 5.33588 66.5582C5.33588 67.2137 5.11857 67.8085 4.68717 68.1901C4.11675 68.7083 3.28349 68.9486 2.24572 68.9486C1.99886 68.9486 1.78155 68.9302 1.62337 68.9023V71.351H0V64.5079V64.5087ZM1.62417 67.6504C1.77436 67.6863 1.9661 67.7007 2.24332 67.7007C3.12691 67.7007 3.7125 67.3007 3.7125 66.5798C3.7125 65.9307 3.21239 65.5842 2.36635 65.5842C1.99566 65.5842 1.7488 65.6113 1.62417 65.6361V67.6504Z" fill="white"/>
<path d="M6.40082 64.5135C6.93129 64.4289 7.74777 64.3594 8.68888 64.3594C9.81453 64.3594 10.5535 64.5327 11.0648 64.9199C11.477 65.2297 11.7375 65.7255 11.7375 66.377C11.7375 67.2999 11.0209 67.8955 10.4616 68.0712V68.1079C10.9466 68.3035 11.2278 68.7706 11.4163 69.371C11.6576 70.1606 11.8741 71.0787 12.0147 71.3526H10.3434C10.23 71.149 10.0518 70.6396 9.82332 69.7518C9.60522 68.8839 9.29045 68.6564 8.57863 68.6452H8.02419V71.3526H6.40002V64.5143L6.40082 64.5135ZM8.02419 67.4796H8.76158C9.60362 67.4796 10.1125 67.1099 10.1125 66.5071C10.1125 65.8588 9.61081 65.565 8.85665 65.565C8.39648 65.565 8.14722 65.5946 8.02419 65.6217V67.4796Z" fill="white"/>
<path d="M19.9558 67.834C19.9558 69.9945 18.4347 71.4747 16.169 71.4747C13.9033 71.4747 12.5436 69.9554 12.5436 67.9538C12.5436 65.8221 14.0711 64.2964 16.2817 64.2964C18.4922 64.2964 19.9558 65.8061 19.9558 67.8332V67.834ZM14.2852 67.9099C14.2852 69.1961 15.0418 70.2045 16.2545 70.2045C17.4672 70.2045 18.2142 69.2137 18.2142 67.8835C18.2142 66.6253 17.488 65.5682 16.2529 65.5682C15.0178 65.5682 14.2852 66.6077 14.2852 67.9091V67.9099Z" fill="white"/>
<path d="M21.0535 64.5087C21.5688 64.4289 22.3054 64.3586 23.4055 64.3586C24.4209 64.3586 25.1383 64.5686 25.6065 64.9271C26.0618 65.264 26.3894 65.8468 26.3894 66.5582C26.3894 67.2137 26.1721 67.8085 25.7407 68.1901C25.1703 68.7083 24.337 68.9486 23.2992 68.9486C23.0524 68.9486 22.8351 68.9302 22.6769 68.9023V71.351H21.0527V64.5079L21.0535 64.5087ZM22.6777 67.6504C22.8279 67.6863 23.0196 67.7007 23.2968 67.7007C24.1804 67.7007 24.766 67.3007 24.766 66.5798C24.766 65.9307 24.2659 65.5842 23.4199 65.5842C23.0492 65.5842 22.8023 65.6113 22.6777 65.6361V67.6504Z" fill="white"/>
<path d="M31.9705 68.4584H29.0945V70.0304H32.3037V71.3526H27.4535V64.4217H32.1447V65.7439H29.0937V67.1379H31.9697V68.4592L31.9705 68.4584Z" fill="white"/>
<path d="M33.4221 64.5135C33.9526 64.4289 34.7691 64.3594 35.7102 64.3594C36.8358 64.3594 37.5748 64.5327 38.0861 64.9199C38.4984 65.2297 38.7588 65.7255 38.7588 66.377C38.7588 67.2999 38.0422 67.8955 37.483 68.0712V68.1079C37.9679 68.3035 38.2491 68.7706 38.4376 69.371C38.6789 70.1606 38.8954 71.0787 39.036 71.3526H37.3647C37.2513 71.149 37.0731 70.6396 36.8446 69.7518C36.6265 68.8839 36.3118 68.6564 35.5999 68.6452H35.0455V71.3526H33.4213V64.5143L33.4221 64.5135ZM35.0463 67.4796H35.7837C36.6257 67.4796 37.1346 67.1099 37.1346 66.5071C37.1346 65.8588 36.6329 65.565 35.8788 65.565C35.4186 65.565 35.1693 65.5946 35.0463 65.6217V67.4796Z" fill="white"/>
<path d="M41.503 65.759H39.4155V64.4209H45.2635V65.759H43.1432V71.3518H41.503V65.759Z" fill="white"/>
<path d="M47.9837 71.3518V68.4472L45.5719 64.4209H47.4868L48.2698 66.0936C48.5094 66.6085 48.67 66.9303 48.8617 67.3734H48.8825C49.0599 66.9638 49.2452 66.5902 49.4713 66.1015L50.2678 64.4209H52.1588L49.6247 68.3945V71.3518H47.9845H47.9837Z" fill="white"/>
<path d="M55.3472 69.6552C55.8082 69.8987 56.5184 70.1454 57.2846 70.1454C58.0507 70.1454 58.4358 69.8572 58.4358 69.4013C58.4358 68.9989 58.0995 68.749 57.1879 68.4839C55.9608 68.1311 55.0724 67.5331 55.0724 66.3929C55.0724 65.1882 56.1501 64.298 57.8398 64.298C58.741 64.298 59.3593 64.4648 59.8379 64.6804L59.4472 65.9698C59.146 65.8365 58.5796 65.6097 57.8111 65.6097C57.0936 65.6097 56.7509 65.9147 56.7509 66.2644C56.7509 66.7131 57.1935 66.8991 58.1442 67.2025C59.4752 67.6305 60.1215 68.2452 60.1215 69.3095C60.1215 70.428 59.2515 71.4755 57.1568 71.4755C56.2955 71.4755 55.4263 71.2376 54.9877 70.9941L55.3456 69.656L55.3472 69.6552Z" fill="white"/>
<path d="M68.3805 67.834C68.3805 69.9945 66.8594 71.4747 64.5937 71.4747C62.3281 71.4747 60.9683 69.9554 60.9683 67.9538C60.9683 65.8221 62.4958 64.2964 64.7064 64.2964C66.917 64.2964 68.3805 65.8061 68.3805 67.8332V67.834ZM62.7099 67.9099C62.7099 69.1961 63.4665 70.2045 64.6792 70.2045C65.892 70.2045 66.6389 69.2137 66.6389 67.8835C66.6389 66.6253 65.9127 65.5682 64.6776 65.5682C63.4425 65.5682 62.7099 66.6077 62.7099 67.9091V67.9099Z" fill="white"/>
<path d="M69.4782 64.4209H71.1184V69.9818H74.2062V71.3526H69.4782V64.4217V64.4209Z" fill="white"/>
<path d="M76.4798 64.4209V68.2349C76.4798 69.4923 76.9943 70.2021 77.9354 70.2021C78.8766 70.2021 79.415 69.5219 79.415 68.2349V64.4209H81.0552V68.1854C81.0552 70.4408 79.8384 71.4755 77.8635 71.4755C76.0125 71.4755 74.8389 70.5159 74.8389 68.1558V64.4209H76.479H76.4798Z" fill="white"/>
<path d="M84.0111 65.759H81.9236V64.4209H87.7715V65.759H85.6512V71.3518H84.0111V65.759Z" fill="white"/>
<path d="M90.2793 64.4209V71.3518H88.6391V64.4209H90.2793Z" fill="white"/>
<path d="M98.798 67.834C98.798 69.9945 97.2769 71.4747 95.0112 71.4747C92.7455 71.4747 91.3858 69.9554 91.3858 67.9538C91.3858 65.8221 92.9133 64.2964 95.1238 64.2964C97.3344 64.2964 98.798 65.8061 98.798 67.8332V67.834ZM93.1274 67.9099C93.1274 69.1961 93.8839 70.2045 95.0967 70.2045C96.3094 70.2045 97.0564 69.2137 97.0564 67.8835C97.0564 66.6253 96.3302 65.5682 95.0951 65.5682C93.86 65.5682 93.1274 66.6077 93.1274 67.9091V67.9099Z" fill="white"/>
<path d="M99.8965 71.3518V64.4209H101.92L103.484 66.9047C103.969 67.6951 104.396 68.5566 104.748 69.4005L104.777 69.3965C104.664 68.4161 104.654 67.577 104.654 66.6053V64.4217H106.178V71.3526H104.401L102.769 68.6724C102.296 67.87 101.794 66.9782 101.399 66.1015L101.36 66.1055C101.411 67.0979 101.422 68.0488 101.422 69.0939V71.3526H99.8973L99.8965 71.3518Z" fill="white"/>
<path d="M107.724 69.6552C108.185 69.8987 108.895 70.1454 109.661 70.1454C110.428 70.1454 110.813 69.8572 110.813 69.4013C110.813 68.9989 110.476 68.749 109.565 68.4839C108.338 68.1311 107.449 67.5331 107.449 66.3929C107.449 65.1882 108.527 64.298 110.217 64.298C111.118 64.298 111.736 64.4648 112.215 64.6804L111.825 65.9698C111.524 65.8365 110.957 65.6097 110.189 65.6097C109.471 65.6097 109.129 65.9147 109.129 66.2644C109.129 66.7131 109.571 66.8991 110.522 67.2025C111.853 67.6305 112.499 68.2452 112.499 69.3095C112.499 70.428 111.629 71.4755 109.534 71.4755C108.673 71.4755 107.804 71.2376 107.365 70.9941L107.723 69.656L107.724 69.6552Z" fill="white"/>
<path d="M20.2131 77.9944C20.2298 79.006 20.8761 79.422 21.6247 79.422C22.1608 79.422 22.4835 79.3286 22.764 79.2096L22.8918 79.7453C22.6281 79.8643 22.1776 80 21.5225 80C20.2554 80 19.4988 79.1673 19.4988 77.9266C19.4988 76.6859 20.2298 75.7086 21.429 75.7086C22.7727 75.7086 23.1299 76.8903 23.1299 77.6463C23.1299 77.7996 23.1131 77.9186 23.1043 77.9944H20.2131ZM22.4068 77.4587C22.4156 76.9829 22.2111 76.2436 21.3691 76.2436C20.6125 76.2436 20.281 76.9406 20.221 77.4587H22.4068Z" fill="white"/>
<path d="M24.3793 75.802L24.9657 76.6859C25.1191 76.915 25.2461 77.1282 25.3828 77.3573H25.4083C25.5441 77.1106 25.6807 76.8982 25.8166 76.6771L26.395 75.802H27.2027L25.7998 77.7908L27.2458 79.9154H26.3958L25.7918 78.9892C25.6304 78.7513 25.4938 78.5222 25.3492 78.2755H25.3324C25.1966 78.5222 25.052 78.7425 24.8986 78.9892L24.3034 79.9154H23.4782L24.941 77.8164L23.5461 75.802H24.3793Z" fill="white"/>
<path d="M30.7746 79.7621C30.5788 79.8643 30.145 80 29.5922 80C28.3507 80 27.543 79.1585 27.543 77.901C27.543 76.6435 28.4106 75.7166 29.7544 75.7166C30.197 75.7166 30.5876 75.8268 30.7921 75.929L30.622 76.507C30.443 76.4048 30.1626 76.3114 29.7544 76.3114C28.8101 76.3114 28.3004 77.0084 28.3004 77.8667C28.3004 78.8184 28.9123 79.4052 29.7288 79.4052C30.1538 79.4052 30.4342 79.295 30.6475 79.2016L30.7754 79.7629L30.7746 79.7621Z" fill="white"/>
<path d="M32.0161 77.9944C32.0328 79.006 32.6791 79.422 33.4277 79.422C33.9638 79.422 34.2865 79.3286 34.567 79.2096L34.6948 79.7453C34.4311 79.8643 33.9806 80 33.3255 80C32.0584 80 31.3018 79.1673 31.3018 77.9266C31.3018 76.6859 32.0328 75.7086 33.232 75.7086C34.5757 75.7086 34.9329 76.8903 34.9329 77.6463C34.9329 77.7996 34.9161 77.9186 34.9073 77.9944H32.0161ZM34.2098 77.4587C34.2186 76.9829 34.0141 76.2436 33.1721 76.2436C32.4155 76.2436 32.084 76.9406 32.024 77.4587H34.2098Z" fill="white"/>
<path d="M35.8596 73.8811H36.6081V79.9154H35.8596V73.8811Z" fill="white"/>
<path d="M37.8664 73.8811H38.615V79.9154H37.8664V73.8811Z" fill="white"/>
<path d="M40.2903 77.9944C40.3071 79.006 40.9534 79.422 41.702 79.422C42.238 79.422 42.5608 79.3286 42.8412 79.2096L42.969 79.7453C42.7054 79.8643 42.2548 80 41.5997 80C40.3326 80 39.5761 79.1673 39.5761 77.9266C39.5761 76.6859 40.3071 75.7086 41.5062 75.7086C42.85 75.7086 43.2071 76.8903 43.2071 77.6463C43.2071 77.7996 43.1903 77.9186 43.1815 77.9944H40.2903ZM42.4841 77.4587C42.4929 76.9829 42.2884 76.2436 41.4463 76.2436C40.6897 76.2436 40.3582 76.9406 40.2983 77.4587H42.4841Z" fill="white"/>
<path d="M44.1338 76.915C44.1338 76.4903 44.125 76.1414 44.0995 75.802H44.7626L44.8049 76.4823H44.8217C45.0254 76.0911 45.5023 75.7086 46.1822 75.7086C46.7518 75.7086 47.6362 76.0487 47.6362 77.4595V79.9154H46.8876V77.5441C46.8876 76.8815 46.6408 76.329 45.9354 76.329C45.4424 76.329 45.0598 76.6771 44.9319 77.0938C44.8976 77.1873 44.8808 77.315 44.8808 77.4419V79.9154H44.1322V76.915H44.1338Z" fill="white"/>
<path d="M51.7873 79.7621C51.5916 79.8643 51.1578 80 50.6049 80C49.3634 80 48.5558 79.1585 48.5558 77.901C48.5558 76.6435 49.4234 75.7166 50.7671 75.7166C51.2097 75.7166 51.6004 75.8268 51.8049 75.929L51.6347 76.507C51.4558 76.4048 51.1754 76.3114 50.7671 76.3114C49.8228 76.3114 49.3131 77.0084 49.3131 77.8667C49.3131 78.8184 49.9251 79.4052 50.7416 79.4052C51.1666 79.4052 51.447 79.295 51.6603 79.2016L51.7881 79.7629L51.7873 79.7621Z" fill="white"/>
<path d="M53.0288 77.9944C53.0456 79.006 53.6919 79.422 54.4405 79.422C54.9766 79.422 55.2993 79.3286 55.5797 79.2096L55.7075 79.7453C55.4439 79.8643 54.9933 80 54.3382 80C53.0712 80 52.3146 79.1673 52.3146 77.9266C52.3146 76.6859 53.0456 75.7086 54.2448 75.7086C55.5885 75.7086 55.9456 76.8903 55.9456 77.6463C55.9456 77.7996 55.9288 77.9186 55.9201 77.9944H53.0288ZM55.2226 77.4587C55.2314 76.9829 55.0269 76.2436 54.1848 76.2436C53.4283 76.2436 53.0967 76.9406 53.0368 77.4587H55.2226Z" fill="white"/>
<path d="M59.5079 74.646C59.5167 74.9006 59.329 75.105 59.0318 75.105C58.7681 75.105 58.5812 74.9014 58.5812 74.646C58.5812 74.3905 58.7769 74.1789 59.0486 74.1789C59.3202 74.1789 59.5079 74.3825 59.5079 74.646ZM58.6747 79.9146V75.8012H59.4232V79.9146H58.6747Z" fill="white"/>
<path d="M60.6648 76.915C60.6648 76.4903 60.656 76.1414 60.6304 75.802H61.2935L61.3358 76.4823H61.3526C61.5563 76.0911 62.0333 75.7086 62.7131 75.7086C63.2828 75.7086 64.1671 76.0487 64.1671 77.4595V79.9154H63.4186V77.5441C63.4186 76.8815 63.1717 76.329 62.4663 76.329C61.9734 76.329 61.5907 76.6771 61.4629 77.0938C61.4285 77.1873 61.4117 77.315 61.4117 77.4419V79.9154H60.6632V76.915H60.6648Z" fill="white"/>
<path d="M67.0847 79.1497C67.306 79.2942 67.6967 79.4475 68.0714 79.4475C68.6154 79.4475 68.8711 79.1753 68.8711 78.8359C68.8711 78.4791 68.6586 78.2835 68.1057 78.0799C67.3659 77.8164 67.0176 77.4084 67.0176 76.9158C67.0176 76.2531 67.5537 75.7086 68.4381 75.7086C68.8551 75.7086 69.2202 75.8276 69.4503 75.9633L69.2633 76.507C69.102 76.4048 68.804 76.2691 68.4213 76.2691C67.9787 76.2691 67.7326 76.5238 67.7326 76.8304C67.7326 77.1705 67.9795 77.323 68.5148 77.5274C69.229 77.7996 69.5949 78.1565 69.5949 78.7681C69.5949 79.4906 69.0333 80 68.0554 80C67.6048 80 67.1878 79.8898 66.8986 79.7198L67.0855 79.1505L67.0847 79.1497Z" fill="white"/>
<path d="M70.9706 77.9944C70.9874 79.006 71.6337 79.422 72.3823 79.422C72.9183 79.422 73.2411 79.3286 73.5215 79.2096L73.6493 79.7453C73.3857 79.8643 72.9351 80 72.28 80C71.0129 80 70.2564 79.1673 70.2564 77.9266C70.2564 76.6859 70.9874 75.7086 72.1865 75.7086C73.5303 75.7086 73.8874 76.8903 73.8874 77.6463C73.8874 77.7996 73.8706 77.9186 73.8618 77.9944H70.9706ZM73.1652 77.4587C73.174 76.9829 72.9695 76.2436 72.1274 76.2436C71.3709 76.2436 71.0393 76.9406 70.9794 77.4587H73.1652Z" fill="white"/>
<path d="M74.8141 77.0851C74.8141 76.6004 74.8053 76.1845 74.7798 75.802H75.4349L75.4604 76.6092H75.4948C75.6817 76.0567 76.1323 75.7086 76.634 75.7086C76.7187 75.7086 76.7786 75.7174 76.8465 75.7342V76.4392C76.7698 76.4224 76.6931 76.4136 76.5917 76.4136C76.0644 76.4136 75.6905 76.8128 75.5882 77.3741C75.5715 77.4763 75.5539 77.5952 75.5539 77.7222V79.9146H74.8141V77.0843V77.0851Z" fill="white"/>
<path d="M78.0968 75.802L78.9045 78.1134C79.0403 78.487 79.1514 78.8272 79.236 79.1673H79.2616C79.3551 78.8272 79.4741 78.487 79.6099 78.1134L80.4096 75.802H81.1918L79.5764 79.9154H78.8622L77.2971 75.802H78.0968Z" fill="white"/>
<path d="M82.7313 74.646C82.7401 74.9006 82.5523 75.105 82.2551 75.105C81.9915 75.105 81.8045 74.9014 81.8045 74.646C81.8045 74.3905 82.0003 74.1789 82.2719 74.1789C82.5435 74.1789 82.7313 74.3825 82.7313 74.646ZM81.898 79.9146V75.8012H82.6466V79.9146H81.898Z" fill="white"/>
<path d="M86.8216 79.7621C86.6259 79.8643 86.1921 80 85.6393 80C84.3978 80 83.5901 79.1585 83.5901 77.901C83.5901 76.6435 84.4577 75.7166 85.8014 75.7166C86.244 75.7166 86.6347 75.8268 86.8392 75.929L86.669 76.507C86.4901 76.4048 86.2097 76.3114 85.8014 76.3114C84.8571 76.3114 84.3474 77.0084 84.3474 77.8667C84.3474 78.8184 84.9594 79.4052 85.7759 79.4052C86.2009 79.4052 86.4813 79.295 86.6946 79.2016L86.8224 79.7629L86.8216 79.7621Z" fill="white"/>
<path d="M88.0631 77.9944C88.0799 79.006 88.7262 79.422 89.4748 79.422C90.0109 79.422 90.3336 79.3286 90.614 79.2096L90.7419 79.7453C90.4782 79.8643 90.0276 80 89.3725 80C88.1055 80 87.3489 79.1673 87.3489 77.9266C87.3489 76.6859 88.0799 75.7086 89.2791 75.7086C90.6228 75.7086 90.9799 76.8903 90.9799 77.6463C90.9799 77.7996 90.9632 77.9186 90.9544 77.9944H88.0631ZM90.2569 77.4587C90.2657 76.9829 90.0612 76.2436 89.2192 76.2436C88.4626 76.2436 88.1311 76.9406 88.0711 77.4587H90.2569Z" fill="white"/>
<path d="M91.8044 79.1497C92.0257 79.2942 92.4164 79.4475 92.791 79.4475C93.3351 79.4475 93.5907 79.1753 93.5907 78.8359C93.5907 78.4791 93.3782 78.2835 92.8254 78.0799C92.0856 77.8164 91.7373 77.4084 91.7373 76.9158C91.7373 76.2531 92.2733 75.7086 93.1577 75.7086C93.5748 75.7086 93.9399 75.8276 94.1699 75.9633L93.983 76.507C93.8216 76.4048 93.5236 76.2691 93.141 76.2691C92.6984 76.2691 92.4523 76.5238 92.4523 76.8304C92.4523 77.1705 92.6992 77.323 93.2344 77.5274C93.9487 77.7996 94.3146 78.1565 94.3146 78.7681C94.3146 79.4906 93.7529 80 92.7751 80C92.3245 80 91.9075 79.8898 91.6183 79.7198L91.8052 79.1505L91.8044 79.1497Z" fill="white"/>
<path d="M111.816 76.6931H97.0844V79.315H111.816V76.6931Z" fill="white"/>
<path d="M16.2952 76.6931H0.238869V79.315H16.2952V76.6931Z" fill="white"/>
<path d="M0.327553 40.2575V50.2334C0.327553 57.6465 4.63045 59.2058 8.2367 59.2058C13.5438 59.2058 16.4686 56.0362 16.4686 50.2877V39.4822H10.8883V50.5248C10.8883 54.4202 9.05877 54.4202 8.37011 54.4202C6.73715 54.4202 5.90869 53.1093 5.90869 50.5248V39.4822H0.327553V40.2583V40.2575Z" fill="white"/>
<path d="M28.3036 46.4291L24.5902 39.8758L24.3674 39.4814H18.4219V58.9112H23.6819V52.7532C23.6819 51.2226 23.6691 49.835 23.638 48.5432L25.2557 51.6115C25.2557 51.6162 29.0769 58.5128 29.0769 58.5128L29.2982 58.9104H34.7699V39.4806H29.5091V45.4566C29.5091 46.683 29.5251 47.7959 29.561 48.8322L28.3044 46.4283L28.3036 46.4291Z" fill="white"/>
<path d="M36.7504 40.2575V58.9112H42.3307V39.4814H36.7504V40.2575Z" fill="white"/>
<path d="M53.6831 46.0395L51.9303 40.0403L51.7674 39.4814H45.0773L45.0294 40.2072L43.8878 58.0904L43.8358 58.9112H49.1366L49.1725 58.1783L49.5184 51.3855C49.5184 51.3855 49.5448 50.6869 49.5848 49.7217L49.9626 51.1532L51.872 58.0513L52.0318 58.619H56.3443L56.5144 58.0777L58.6907 51.0981C58.9024 50.4514 59.1205 49.7688 59.333 49.0678L59.4073 51.3216C59.4073 51.3264 59.6997 58.1711 59.6997 58.1711L59.7316 58.9112H65.2137L65.1714 58.0976L64.2159 40.2168L64.1767 39.4814H57.5714L57.4012 40.0235L55.5182 45.9652C55.1986 47.0199 54.8695 48.1943 54.5563 49.3967L53.6839 46.0395H53.6831Z" fill="white"/>
<path d="M83.2585 57.9076L77.6854 40.0267L77.516 39.4806H71.0944L70.9274 40.0291L65.4645 57.9108L65.1554 58.9104H70.9858L71.1407 58.3395L72.2321 54.322L76.213 54.3196L77.4281 58.3611L77.5927 58.9104H83.5685L83.2585 57.9076ZM72.2241 50.524L73.3114 46.7301C73.5766 45.6953 73.8698 44.3429 74.1063 43.2794H74.1886C74.4538 44.3149 74.771 45.6682 75.0618 46.7301L76.1778 50.524H72.2249H72.2241Z" fill="white"/>
<path d="M83.8425 57.9922C84.8971 58.5767 87.0493 59.2042 89.2799 59.2042C95.1574 59.2042 97.2433 55.7998 97.2433 52.8849C97.2433 49.97 95.6184 48.0913 92.1248 46.7995C89.8934 45.9365 89.315 45.562 89.315 44.9776C89.315 44.3932 90.0492 44.0267 91.1405 44.0267C92.7351 44.0267 93.9335 44.5065 94.5079 44.794L95.3467 45.2139L95.5984 44.3101L96.4995 41.0734L96.6745 40.4459L96.0897 40.1673C94.7204 39.5174 93.0754 39.19 91.194 39.19C86.7545 39.19 83.6548 41.7114 83.6548 45.3225C83.6548 48.053 85.4883 50.0929 89.1033 51.3839C91.3969 52.1759 91.5887 52.6893 91.5887 53.1492C91.5887 54.1839 90.2929 54.3388 89.5227 54.3388C87.9225 54.3388 86.3423 53.8086 85.3988 53.3136L84.5256 52.8538L84.2867 53.8102L83.4662 57.1268L83.3232 57.7056L83.8433 57.9906L83.8425 57.9922Z" fill="white"/>
<path d="M98.1669 57.9922C99.2206 58.5767 101.374 59.2042 103.608 59.2042C109.487 59.2042 111.571 55.7998 111.571 52.8849C111.571 49.97 109.944 48.0913 106.449 46.7995C104.22 45.9365 103.639 45.562 103.639 44.9776C103.639 44.3932 104.374 44.0267 105.463 44.0267C107.059 44.0267 108.259 44.5065 108.832 44.794L109.673 45.2139L109.926 44.3101L110.827 41.0734L111.004 40.4459L110.412 40.1673C109.05 39.5174 107.401 39.19 105.518 39.19C101.079 39.19 97.9791 41.7114 97.9791 45.3225C97.9791 48.053 99.8126 50.0929 103.427 51.3839C105.72 52.1775 105.911 52.6893 105.911 53.1492C105.911 54.1839 104.618 54.3388 103.849 54.3388C102.246 54.3388 100.667 53.8086 99.7239 53.3136L98.8507 52.8538L98.6135 53.8102L97.7906 57.1268L97.6476 57.7056L98.1677 57.9906L98.1669 57.9922Z" fill="white"/>
<path d="M61.796 36.1378L67.354 0L48.3097 7.47937L48.6804 9.62705L64.0193 4.81353L61.796 36.1378Z" fill="white"/>
<path d="M55.2753 40.1369L54.5348 9.18314L36.7504 14.4414L42.234 35.1022L41.0485 26.4381L46.3092 25.4009L48.3097 37.6196L47.1984 25.2524L53.052 24.1419L55.2745 40.1369H55.2753ZM40.9734 25.6964L39.7143 16.1436L44.753 15.033L46.0872 24.2896L40.9742 25.6964H40.9734ZM47.0498 23.9934L46.2349 14.5148L51.3479 13.4777L52.8299 22.7343L47.0506 23.9934H47.0498Z" fill="white"/>
<path d="M61.4612 22.0764C61.4612 22.7351 60.9268 23.2692 60.2677 23.2692C59.6086 23.2692 59.0749 22.7351 59.0749 22.0764C59.0749 21.4178 59.6094 20.8844 60.2677 20.8844C60.926 20.8844 61.4612 21.4186 61.4612 22.0764Z" fill="white"/>
</g>
<defs>
<clipPath id="clip0_1153_1138">
<rect width="112.5" height="80" fill="white"/>
</clipPath>
</defs>
</svg>
